<svg width="300" height="100" viewBox="0 0 300 100" fill="none" xmlns="http://www.w3.org/2000/svg">
<rect width="300" height="100" rx="20" fill="#F8BE85"/>
<path d="M20.5432 31.147C20.2493 31.147 20.0104 31.0796 19.8267 30.9449C19.6553 30.8102 19.5511 30.6326 19.5144 30.4121C19.4777 30.1794 19.5205 29.9222 19.643 29.6405L24.4931 18.8931C24.6523 18.5379 24.8422 18.2868 25.0626 18.1399C25.2953 17.9807 25.5587 17.901 25.8526 17.901C26.1343 17.901 26.3854 17.9807 26.6058 18.1399C26.8386 18.2868 27.0345 18.5379 27.1937 18.8931L32.0622 29.6405C32.1969 29.9222 32.2459 30.1794 32.2092 30.4121C32.1724 30.6448 32.0683 30.8285 31.8969 30.9633C31.7254 31.0857 31.4988 31.147 31.2171 31.147C30.8742 31.147 30.6047 31.0674 30.4088 30.9081C30.2251 30.7367 30.0597 30.4795 29.9127 30.1365L28.7186 27.3624L29.7106 28.0054H21.9578L22.9499 27.3624L21.7741 30.1365C21.6149 30.4917 21.4495 30.7489 21.2781 30.9081C21.1066 31.0674 20.8617 31.147 20.5432 31.147ZM25.8159 20.6017L23.2438 26.7194L22.7662 26.1315H28.9023L28.443 26.7194L25.8526 20.6017H25.8159ZM36.9333 31.1837C35.9167 31.1837 35.1512 30.8959 34.6368 30.3203C34.1224 29.7324 33.8652 28.875 33.8652 27.7482V19.0585C33.8652 18.6788 33.9632 18.391 34.1592 18.195C34.3551 17.999 34.6368 17.901 35.0043 17.901C35.3717 17.901 35.6534 17.999 35.8494 18.195C36.0576 18.391 36.1617 18.6788 36.1617 19.0585V27.638C36.1617 28.2014 36.278 28.6178 36.5107 28.8873C36.7557 29.1567 37.0986 29.2914 37.5395 29.2914C37.6375 29.2914 37.7294 29.2914 37.8151 29.2914C37.9008 29.2792 37.9866 29.2669 38.0723 29.2547C38.2438 29.2302 38.3601 29.2792 38.4214 29.4017C38.4826 29.5119 38.5132 29.7446 38.5132 30.0998C38.5132 30.406 38.452 30.6448 38.3295 30.8163C38.207 30.9878 38.005 31.0919 37.7233 31.1286C37.6008 31.1408 37.4722 31.1531 37.3375 31.1653C37.2027 31.1776 37.068 31.1837 36.9333 31.1837ZM42.9837 31.1837C42.2366 31.1837 41.6181 31.049 41.1282 30.7795C40.6383 30.4978 40.2708 30.0814 40.0259 29.5303C39.7932 28.9791 39.6768 28.2932 39.6768 27.4727V23.0267C39.6768 22.6348 39.7748 22.347 39.9708 22.1633C40.1667 21.9673 40.4484 21.8693 40.8159 21.8693C41.1833 21.8693 41.465 21.9673 41.661 22.1633C41.8692 22.347 41.9733 22.6348 41.9733 23.0267V27.5094C41.9733 28.1463 42.1019 28.6178 42.3591 28.924C42.6163 29.2302 43.0266 29.3833 43.59 29.3833C44.2024 29.3833 44.7045 29.1751 45.0964 28.7587C45.4884 28.33 45.6843 27.7666 45.6843 27.0685V23.0267C45.6843 22.6348 45.7823 22.347 45.9783 22.1633C46.1742 21.9673 46.4559 21.8693 46.8234 21.8693C47.1908 21.8693 47.4725 21.9673 47.6685 22.1633C47.8767 22.347 47.9808 22.6348 47.9808 23.0267V29.9712C47.9808 30.755 47.6072 31.147 46.8601 31.147C46.5049 31.147 46.2294 31.049 46.0334 30.853C45.8374 30.6448 45.7394 30.3509 45.7394 29.9712V28.5749L45.9967 29.1261C45.7394 29.7875 45.3475 30.2958 44.8209 30.6509C44.3065 31.0061 43.6941 31.1837 42.9837 31.1837ZM51.51 31.147C51.1426 31.147 50.8609 31.049 50.6649 30.853C50.4689 30.6448 50.371 30.3509 50.371 29.9712V23.0267C50.371 22.647 50.4689 22.3592 50.6649 22.1633C50.8609 21.9673 51.1364 21.8693 51.4916 21.8693C51.8468 21.8693 52.1224 21.9673 52.3184 22.1633C52.5143 22.3592 52.6123 22.647 52.6123 23.0267V24.276L52.4102 23.8167C52.6797 23.1676 53.0961 22.6777 53.6595 22.347C54.2351 22.004 54.8843 21.8326 55.6069 21.8326C56.3295 21.8326 56.9235 21.9673 57.3889 22.2367C57.8543 22.5062 58.2034 22.9165 58.4361 23.4676C58.6688 24.0065 58.7852 24.6924 58.7852 25.5253V29.9712C58.7852 30.3509 58.6872 30.6448 58.4912 30.853C58.2952 31.049 58.0136 31.147 57.6461 31.147C57.2787 31.147 56.9909 31.049 56.7827 30.853C56.5867 30.6448 56.4887 30.3509 56.4887 29.9712V25.6355C56.4887 24.9374 56.354 24.4291 56.0845 24.1106C55.8273 23.7922 55.4232 23.633 54.872 23.633C54.1984 23.633 53.6595 23.8473 53.2553 24.276C52.8634 24.6924 52.6674 25.2497 52.6674 25.9478V29.9712C52.6674 30.755 52.2816 31.147 51.51 31.147ZM65.2145 31.1837C64.2837 31.1837 63.4753 30.9939 62.7895 30.6142C62.1036 30.2345 61.5708 29.6956 61.1911 28.9975C60.8114 28.2871 60.6216 27.4543 60.6216 26.499C60.6216 25.7763 60.7257 25.1333 60.9339 24.5699C61.1544 23.9943 61.4667 23.5044 61.8709 23.1002C62.275 22.6838 62.7588 22.3715 63.3222 22.1633C63.8856 21.9428 64.5164 21.8326 65.2145 21.8326C66.1453 21.8326 66.9537 22.0224 67.6396 22.4021C68.3254 22.7818 68.8582 23.3207 69.2379 24.0188C69.6176 24.7169 69.8074 25.5436 69.8074 26.499C69.8074 27.2216 69.6972 27.8707 69.4767 28.4463C69.2685 29.022 68.9623 29.518 68.5581 29.9344C68.154 30.3386 67.6702 30.6509 67.1068 30.8714C66.5434 31.0796 65.9126 31.1837 65.2145 31.1837ZM65.2145 29.4384C65.6677 29.4384 66.0657 29.3282 66.4087 29.1077C66.7516 28.8873 67.0149 28.5627 67.1986 28.134C67.3946 27.6931 67.4926 27.1481 67.4926 26.499C67.4926 25.5191 67.2844 24.7904 66.868 24.3127C66.4515 23.8228 65.9004 23.5779 65.2145 23.5779C64.7613 23.5779 64.3633 23.6881 64.0204 23.9086C63.6774 24.1168 63.408 24.4413 63.212 24.8823C63.0283 25.3109 62.9364 25.8498 62.9364 26.499C62.9364 27.4665 63.1446 28.2014 63.5611 28.7035C63.9775 29.1935 64.5286 29.4384 65.2145 29.4384Z" fill="black" fill-opacity="0.77"/>
<path d="M83.6454 30.9536C83.3919 30.9536 83.1935 30.882 83.0502 30.7387C82.9179 30.5954 82.8518 30.397 82.8518 30.1434V19.8755C82.8518 19.611 82.9234 19.4126 83.0667 19.2803C83.21 19.137 83.4029 19.0654 83.6454 19.0654C83.8769 19.0654 84.0533 19.1095 84.1745 19.1976C84.3068 19.2748 84.4281 19.4181 84.5383 19.6275L88.8703 27.7129H88.3578L92.6732 19.6275C92.7835 19.4181 92.8992 19.2748 93.0205 19.1976C93.1417 19.1095 93.3181 19.0654 93.5496 19.0654C93.7921 19.0654 93.9795 19.137 94.1117 19.2803C94.244 19.4126 94.3102 19.611 94.3102 19.8755V30.1434C94.3102 30.397 94.244 30.5954 94.1117 30.7387C93.9905 30.882 93.8031 30.9536 93.5496 30.9536C93.296 30.9536 93.1031 30.882 92.9709 30.7387C92.8386 30.5954 92.7725 30.397 92.7725 30.1434V21.6117H93.1362L89.3002 28.7049C89.212 28.8703 89.1183 28.9915 89.0191 29.0687C88.9199 29.1459 88.7821 29.1844 88.6058 29.1844C88.4294 29.1844 88.2861 29.1459 88.1759 29.0687C88.0656 28.9805 87.9664 28.8593 87.8783 28.7049L84.0092 21.5951H84.406V30.1434C84.406 30.397 84.3399 30.5954 84.2076 30.7387C84.0864 30.882 83.899 30.9536 83.6454 30.9536ZM99.4578 30.9867C98.8956 30.9867 98.3886 30.8765 97.9366 30.656C97.4957 30.4356 97.1485 30.1379 96.895 29.7632C96.6414 29.3884 96.5147 28.964 96.5147 28.49C96.5147 27.8948 96.6635 27.4263 96.9611 27.0846C97.2697 26.7318 97.7713 26.4838 98.4657 26.3405C99.1712 26.1862 100.119 26.109 101.31 26.109H102.087V27.1342H101.326C100.533 27.1342 99.9042 27.1728 99.4413 27.2499C98.9783 27.3271 98.6476 27.4594 98.4492 27.6467C98.2618 27.8231 98.1681 28.0711 98.1681 28.3908C98.1681 28.8097 98.3114 29.1514 98.598 29.4159C98.8846 29.6695 99.2814 29.7962 99.7885 29.7962C100.196 29.7962 100.555 29.7025 100.863 29.5151C101.172 29.3167 101.414 29.0522 101.591 28.7215C101.778 28.3908 101.872 28.0105 101.872 27.5806V25.6791C101.872 25.0508 101.74 24.5989 101.475 24.3233C101.21 24.0477 100.775 23.91 100.169 23.91C99.816 23.91 99.4468 23.954 99.061 24.0422C98.6862 24.1304 98.2949 24.2792 97.887 24.4887C97.6996 24.5768 97.5398 24.6044 97.4075 24.5713C97.2753 24.5383 97.1705 24.4666 97.0934 24.3564C97.0162 24.2351 96.9721 24.1084 96.9611 23.9761C96.9611 23.8328 96.9942 23.695 97.0603 23.5627C97.1375 23.4305 97.2642 23.3312 97.4406 23.2651C97.9256 23.0336 98.4051 22.8683 98.8791 22.7691C99.3531 22.6699 99.7995 22.6203 100.218 22.6203C100.957 22.6203 101.563 22.736 102.037 22.9675C102.522 23.199 102.88 23.5517 103.112 24.0257C103.343 24.4997 103.459 25.1115 103.459 25.861V30.1104C103.459 30.3749 103.393 30.5844 103.261 30.7387C103.128 30.882 102.936 30.9536 102.682 30.9536C102.44 30.9536 102.247 30.882 102.103 30.7387C101.96 30.5844 101.888 30.3749 101.888 30.1104V29.0356H102.037C101.949 29.4435 101.784 29.7962 101.541 30.0938C101.31 30.3804 101.018 30.6009 100.665 30.7552C100.312 30.9095 99.9097 30.9867 99.4578 30.9867ZM109.198 30.9867C108.537 30.9867 107.98 30.871 107.528 30.6395C107.076 30.408 106.74 30.0663 106.52 29.6143C106.299 29.1624 106.189 28.6113 106.189 27.9609V24.0588H105.197C104.977 24.0588 104.806 24.0037 104.684 23.8934C104.563 23.7722 104.503 23.6123 104.503 23.4139C104.503 23.2045 104.563 23.0447 104.684 22.9344C104.806 22.8242 104.977 22.7691 105.197 22.7691H106.189V21.066C106.189 20.7905 106.261 20.581 106.404 20.4377C106.558 20.2944 106.768 20.2228 107.032 20.2228C107.297 20.2228 107.501 20.2944 107.644 20.4377C107.787 20.581 107.859 20.7905 107.859 21.066V22.7691H109.794C110.014 22.7691 110.185 22.8242 110.306 22.9344C110.427 23.0447 110.488 23.2045 110.488 23.4139C110.488 23.6123 110.427 23.7722 110.306 23.8934C110.185 24.0037 110.014 24.0588 109.794 24.0588H107.859V27.8286C107.859 28.4128 107.98 28.8538 108.223 29.1514C108.476 29.449 108.884 29.5978 109.446 29.5978C109.645 29.5978 109.816 29.5813 109.959 29.5482C110.113 29.5041 110.24 29.4766 110.339 29.4655C110.461 29.4655 110.56 29.5096 110.637 29.5978C110.714 29.675 110.753 29.8293 110.753 30.0608C110.753 30.2261 110.72 30.3804 110.653 30.5237C110.598 30.667 110.494 30.7607 110.339 30.8048C110.207 30.8489 110.025 30.8875 109.794 30.9206C109.573 30.9647 109.375 30.9867 109.198 30.9867ZM112.77 30.9536C112.506 30.9536 112.302 30.882 112.158 30.7387C112.015 30.5844 111.944 30.3749 111.944 30.1104V19.9086C111.944 19.633 112.015 19.4236 112.158 19.2803C112.302 19.137 112.506 19.0654 112.77 19.0654C113.035 19.0654 113.239 19.137 113.382 19.2803C113.536 19.4236 113.613 19.633 113.613 19.9086V24.4887H113.382C113.625 23.8714 114.005 23.4084 114.523 23.0998C115.041 22.7801 115.636 22.6203 116.309 22.6203C116.948 22.6203 117.477 22.7415 117.896 22.984C118.326 23.2155 118.645 23.5738 118.855 24.0588C119.064 24.5328 119.169 25.1335 119.169 25.861V30.1104C119.169 30.3749 119.097 30.5844 118.954 30.7387C118.811 30.882 118.607 30.9536 118.342 30.9536C118.067 30.9536 117.857 30.882 117.714 30.7387C117.571 30.5844 117.499 30.3749 117.499 30.1104V25.9602C117.499 25.2658 117.361 24.7587 117.086 24.4391C116.821 24.1194 116.402 23.9596 115.829 23.9596C115.157 23.9596 114.617 24.169 114.209 24.5879C113.812 25.0067 113.613 25.5689 113.613 26.2744V30.1104C113.613 30.6725 113.332 30.9536 112.77 30.9536ZM125.257 30.9867C124.375 30.9867 123.614 30.8214 122.975 30.4907C122.347 30.149 121.856 29.6695 121.503 29.0522C121.162 28.4239 120.991 27.6798 120.991 26.82C120.991 25.9823 121.162 25.2492 121.503 24.6209C121.845 23.9926 122.313 23.5021 122.909 23.1494C123.504 22.7966 124.182 22.6203 124.942 22.6203C125.505 22.6203 126.006 22.714 126.447 22.9014C126.888 23.0777 127.263 23.3423 127.571 23.695C127.891 24.0367 128.128 24.4556 128.282 24.9516C128.448 25.4477 128.53 26.0043 128.53 26.6216C128.53 26.809 128.475 26.9523 128.365 27.0515C128.255 27.1397 128.089 27.1838 127.869 27.1838H122.313V26.1586H127.406L127.125 26.3901C127.125 25.839 127.042 25.3705 126.877 24.9847C126.723 24.5989 126.486 24.3068 126.166 24.1084C125.857 23.8989 125.472 23.7942 125.009 23.7942C124.49 23.7942 124.05 23.9155 123.686 24.158C123.333 24.4005 123.063 24.7367 122.876 25.1666C122.688 25.5965 122.595 26.098 122.595 26.6712V26.7704C122.595 27.7404 122.821 28.4735 123.272 28.9695C123.735 29.4545 124.402 29.697 125.273 29.697C125.604 29.697 125.951 29.6529 126.315 29.5647C126.69 29.4766 127.042 29.3277 127.373 29.1183C127.56 29.0081 127.726 28.9585 127.869 28.9695C128.023 28.9805 128.145 29.0301 128.233 29.1183C128.332 29.2065 128.393 29.3167 128.415 29.449C128.437 29.5813 128.415 29.7191 128.349 29.8624C128.282 29.9946 128.167 30.1159 128.001 30.2261C127.627 30.4796 127.191 30.6725 126.695 30.8048C126.199 30.9261 125.72 30.9867 125.257 30.9867ZM133.228 30.9867C132.578 30.9867 132.032 30.8654 131.591 30.6229C131.161 30.3804 130.836 30.0222 130.616 29.5482C130.406 29.0632 130.301 28.4569 130.301 27.7294V23.4966C130.301 23.21 130.373 23.0006 130.516 22.8683C130.66 22.725 130.864 22.6533 131.128 22.6533C131.393 22.6533 131.597 22.725 131.74 22.8683C131.894 23.0006 131.971 23.21 131.971 23.4966V27.7459C131.971 28.3963 132.104 28.8758 132.368 29.1844C132.633 29.4931 133.052 29.6474 133.625 29.6474C134.253 29.6474 134.76 29.438 135.146 29.0191C135.543 28.5892 135.741 28.027 135.741 27.3326V23.4966C135.741 23.21 135.813 23.0006 135.956 22.8683C136.099 22.725 136.309 22.6533 136.584 22.6533C136.849 22.6533 137.053 22.725 137.196 22.8683C137.34 23.0006 137.411 23.21 137.411 23.4966V30.1104C137.411 30.6725 137.141 30.9536 136.601 30.9536C136.347 30.9536 136.149 30.882 136.006 30.7387C135.862 30.5844 135.791 30.3749 135.791 30.1104V28.7049L136.006 29.0687C135.785 29.686 135.433 30.16 134.948 30.4907C134.463 30.8214 133.889 30.9867 133.228 30.9867ZM142.592 30.9867C142.107 30.9867 141.605 30.9316 141.087 30.8214C140.58 30.7111 140.112 30.5237 139.682 30.2592C139.539 30.16 139.439 30.0497 139.384 29.9285C139.329 29.8072 139.307 29.686 139.318 29.5647C139.34 29.4325 139.39 29.3222 139.467 29.234C139.555 29.1348 139.66 29.0742 139.781 29.0522C139.913 29.0301 140.051 29.0577 140.195 29.1348C140.624 29.3773 141.038 29.5482 141.435 29.6474C141.831 29.7356 142.223 29.7797 142.609 29.7797C143.193 29.7797 143.634 29.675 143.931 29.4655C144.229 29.2561 144.378 28.975 144.378 28.6223C144.378 28.3357 144.279 28.1152 144.08 27.9609C143.882 27.7956 143.584 27.6688 143.187 27.5806L141.617 27.2664C140.933 27.1232 140.415 26.8696 140.062 26.5059C139.71 26.1421 139.533 25.6791 139.533 25.117C139.533 24.6099 139.671 24.169 139.947 23.7942C140.222 23.4194 140.608 23.1328 141.104 22.9344C141.6 22.725 142.173 22.6203 142.824 22.6203C143.309 22.6203 143.766 22.6809 144.196 22.8021C144.626 22.9234 145.023 23.1053 145.386 23.3478C145.53 23.4249 145.623 23.5297 145.667 23.6619C145.712 23.7832 145.717 23.9044 145.684 24.0257C145.662 24.1469 145.607 24.2572 145.519 24.3564C145.43 24.4446 145.32 24.4997 145.188 24.5217C145.067 24.5328 144.929 24.4997 144.775 24.4225C144.444 24.2131 144.113 24.0643 143.783 23.9761C143.463 23.8879 143.143 23.8438 142.824 23.8438C142.239 23.8438 141.798 23.954 141.501 24.1745C141.214 24.3839 141.071 24.6705 141.071 25.0343C141.071 25.3099 141.159 25.5358 141.335 25.7122C141.512 25.8886 141.787 26.0153 142.162 26.0925L143.733 26.4067C144.449 26.55 144.99 26.7925 145.353 27.1342C145.728 27.4759 145.915 27.9389 145.915 28.5231C145.915 29.2837 145.612 29.8844 145.006 30.3253C144.4 30.7662 143.595 30.9867 142.592 30.9867ZM153.175 30.9536C152.899 30.9536 152.684 30.8765 152.53 30.7221C152.387 30.5678 152.315 30.3529 152.315 30.0773V19.9417C152.315 19.6551 152.387 19.4401 152.53 19.2968C152.684 19.1425 152.899 19.0654 153.175 19.0654C153.45 19.0654 153.66 19.1425 153.803 19.2968C153.958 19.4401 154.035 19.6551 154.035 19.9417V30.0773C154.035 30.3529 153.963 30.5678 153.82 30.7221C153.676 30.8765 153.461 30.9536 153.175 30.9536ZM159.385 30.9867C158.9 30.9867 158.398 30.9316 157.88 30.8214C157.373 30.7111 156.905 30.5237 156.475 30.2592C156.331 30.16 156.232 30.0497 156.177 29.9285C156.122 29.8072 156.1 29.686 156.111 29.5647C156.133 29.4325 156.183 29.3222 156.26 29.234C156.348 29.1348 156.453 29.0742 156.574 29.0522C156.706 29.0301 156.844 29.0577 156.987 29.1348C157.417 29.3773 157.831 29.5482 158.227 29.6474C158.624 29.7356 159.016 29.7797 159.401 29.7797C159.986 29.7797 160.427 29.675 160.724 29.4655C161.022 29.2561 161.171 28.975 161.171 28.6223C161.171 28.3357 161.071 28.1152 160.873 27.9609C160.675 27.7956 160.377 27.6688 159.98 27.5806L158.409 27.2664C157.726 27.1232 157.208 26.8696 156.855 26.5059C156.502 26.1421 156.326 25.6791 156.326 25.117C156.326 24.6099 156.464 24.169 156.739 23.7942C157.015 23.4194 157.401 23.1328 157.897 22.9344C158.393 22.725 158.966 22.6203 159.616 22.6203C160.101 22.6203 160.559 22.6809 160.989 22.8021C161.419 22.9234 161.815 23.1053 162.179 23.3478C162.322 23.4249 162.416 23.5297 162.46 23.6619C162.504 23.7832 162.51 23.9044 162.477 24.0257C162.455 24.1469 162.4 24.2572 162.311 24.3564C162.223 24.4446 162.113 24.4997 161.981 24.5217C161.86 24.5328 161.722 24.4997 161.567 24.4225C161.237 24.2131 160.906 24.0643 160.575 23.9761C160.256 23.8879 159.936 23.8438 159.616 23.8438C159.032 23.8438 158.591 23.954 158.294 24.1745C158.007 24.3839 157.864 24.6705 157.864 25.0343C157.864 25.3099 157.952 25.5358 158.128 25.7122C158.305 25.8886 158.58 26.0153 158.955 26.0925L160.526 26.4067C161.242 26.55 161.782 26.7925 162.146 27.1342C162.521 27.4759 162.708 27.9389 162.708 28.5231C162.708 29.2837 162.405 29.8844 161.799 30.3253C161.193 30.7662 160.388 30.9867 159.385 30.9867ZM165.426 30.9536C165.162 30.9536 164.958 30.882 164.814 30.7387C164.671 30.5844 164.599 30.3749 164.599 30.1104V23.4966C164.599 23.221 164.671 23.0116 164.814 22.8683C164.958 22.725 165.156 22.6533 165.41 22.6533C165.674 22.6533 165.873 22.725 166.005 22.8683C166.148 23.0116 166.22 23.221 166.22 23.4966V24.8524L166.038 24.4887C166.258 23.9044 166.6 23.447 167.063 23.1163C167.526 22.7856 168.083 22.6203 168.733 22.6203C169.405 22.6203 169.951 22.7801 170.37 23.0998C170.789 23.4194 171.075 23.91 171.23 24.5713H170.998C171.208 23.9651 171.566 23.4911 172.073 23.1494C172.58 22.7966 173.17 22.6203 173.842 22.6203C174.459 22.6203 174.967 22.7415 175.363 22.984C175.76 23.2155 176.058 23.5738 176.256 24.0588C176.455 24.5328 176.554 25.1335 176.554 25.861V30.1104C176.554 30.3749 176.477 30.5844 176.322 30.7387C176.179 30.882 175.975 30.9536 175.711 30.9536C175.446 30.9536 175.242 30.882 175.099 30.7387C174.955 30.5844 174.884 30.3749 174.884 30.1104V25.9437C174.884 25.2603 174.763 24.7587 174.52 24.4391C174.289 24.1194 173.903 23.9596 173.363 23.9596C172.756 23.9596 172.277 24.169 171.924 24.5879C171.571 25.0067 171.395 25.5854 171.395 26.324V30.1104C171.395 30.3749 171.323 30.5844 171.18 30.7387C171.037 30.882 170.833 30.9536 170.568 30.9536C170.304 30.9536 170.094 30.882 169.94 30.7387C169.797 30.5844 169.725 30.3749 169.725 30.1104V25.9437C169.725 25.2603 169.609 24.7587 169.378 24.4391C169.146 24.1194 168.761 23.9596 168.22 23.9596C167.614 23.9596 167.135 24.169 166.782 24.5879C166.44 25.0067 166.269 25.5854 166.269 26.324V30.1104C166.269 30.6725 165.988 30.9536 165.426 30.9536ZM181.468 30.9867C180.906 30.9867 180.399 30.8765 179.947 30.656C179.506 30.4356 179.159 30.1379 178.905 29.7632C178.652 29.3884 178.525 28.964 178.525 28.49C178.525 27.8948 178.674 27.4263 178.971 27.0846C179.28 26.7318 179.782 26.4838 180.476 26.3405C181.181 26.1862 182.129 26.109 183.32 26.109H184.097V27.1342H183.336C182.543 27.1342 181.914 27.1728 181.451 27.2499C180.989 27.3271 180.658 27.4594 180.459 27.6467C180.272 27.8231 180.178 28.0711 180.178 28.3908C180.178 28.8097 180.322 29.1514 180.608 29.4159C180.895 29.6695 181.292 29.7962 181.799 29.7962C182.207 29.7962 182.565 29.7025 182.873 29.5151C183.182 29.3167 183.425 29.0522 183.601 28.7215C183.788 28.3908 183.882 28.0105 183.882 27.5806V25.6791C183.882 25.0508 183.75 24.5989 183.485 24.3233C183.221 24.0477 182.785 23.91 182.179 23.91C181.826 23.91 181.457 23.954 181.071 24.0422C180.696 24.1304 180.305 24.2792 179.897 24.4887C179.71 24.5768 179.55 24.6044 179.418 24.5713C179.285 24.5383 179.181 24.4666 179.104 24.3564C179.026 24.2351 178.982 24.1084 178.971 23.9761C178.971 23.8328 179.004 23.695 179.071 23.5627C179.148 23.4305 179.274 23.3312 179.451 23.2651C179.936 23.0336 180.415 22.8683 180.889 22.7691C181.363 22.6699 181.81 22.6203 182.229 22.6203C182.967 22.6203 183.573 22.736 184.047 22.9675C184.532 23.199 184.891 23.5517 185.122 24.0257C185.354 24.4997 185.469 25.1115 185.469 25.861V30.1104C185.469 30.3749 185.403 30.5844 185.271 30.7387C185.139 30.882 184.946 30.9536 184.692 30.9536C184.45 30.9536 184.257 30.882 184.114 30.7387C183.97 30.5844 183.899 30.3749 183.899 30.1104V29.0356H184.047C183.959 29.4435 183.794 29.7962 183.551 30.0938C183.32 30.3804 183.028 30.6009 182.675 30.7552C182.322 30.9095 181.92 30.9867 181.468 30.9867ZM191.556 30.9867C190.674 30.9867 189.913 30.8214 189.274 30.4907C188.646 30.149 188.155 29.6695 187.803 29.0522C187.461 28.4239 187.29 27.6798 187.29 26.82C187.29 25.9823 187.461 25.2492 187.803 24.6209C188.144 23.9926 188.613 23.5021 189.208 23.1494C189.803 22.7966 190.481 22.6203 191.242 22.6203C191.804 22.6203 192.305 22.714 192.746 22.9014C193.187 23.0777 193.562 23.3423 193.871 23.695C194.19 24.0367 194.427 24.4556 194.582 24.9516C194.747 25.4477 194.83 26.0043 194.83 26.6216C194.83 26.809 194.775 26.9523 194.664 27.0515C194.554 27.1397 194.389 27.1838 194.168 27.1838H188.613V26.1586H193.705L193.424 26.3901C193.424 25.839 193.342 25.3705 193.176 24.9847C193.022 24.5989 192.785 24.3068 192.465 24.1084C192.157 23.8989 191.771 23.7942 191.308 23.7942C190.79 23.7942 190.349 23.9155 189.985 24.158C189.632 24.4005 189.362 24.7367 189.175 25.1666C188.988 25.5965 188.894 26.098 188.894 26.6712V26.7704C188.894 27.7404 189.12 28.4735 189.572 28.9695C190.035 29.4545 190.702 29.697 191.572 29.697C191.903 29.697 192.25 29.6529 192.614 29.5647C192.989 29.4766 193.342 29.3277 193.672 29.1183C193.86 29.0081 194.025 28.9585 194.168 28.9695C194.323 28.9805 194.444 29.0301 194.532 29.1183C194.631 29.2065 194.692 29.3167 194.714 29.449C194.736 29.5813 194.714 29.7191 194.648 29.8624C194.582 29.9946 194.466 30.1159 194.301 30.2261C193.926 30.4796 193.49 30.6725 192.994 30.8048C192.498 30.9261 192.019 30.9867 191.556 30.9867ZM199.246 30.9867C198.386 30.9867 197.736 30.7387 197.295 30.2427C196.865 29.7356 196.65 29.0081 196.65 28.0601V19.9086C196.65 19.633 196.722 19.4236 196.865 19.2803C197.009 19.137 197.212 19.0654 197.477 19.0654C197.742 19.0654 197.945 19.137 198.089 19.2803C198.243 19.4236 198.32 19.633 198.32 19.9086V27.9609C198.32 28.512 198.43 28.9254 198.651 29.201C198.882 29.4655 199.213 29.5978 199.643 29.5978C199.742 29.5978 199.83 29.5978 199.908 29.5978C199.985 29.5868 200.062 29.5758 200.139 29.5647C200.271 29.5537 200.365 29.5923 200.42 29.6805C200.475 29.7576 200.503 29.923 200.503 30.1765C200.503 30.408 200.453 30.5899 200.354 30.7221C200.255 30.8434 200.095 30.9206 199.874 30.9536C199.775 30.9647 199.671 30.9702 199.56 30.9702C199.45 30.9812 199.345 30.9867 199.246 30.9867Z" fill="black" fill-opacity="0.77"/>
<path d="M23.345 60.099C22.575 60.099 21.915 59.9377 21.365 59.615C20.815 59.2923 20.3897 58.834 20.089 58.24C19.7957 57.6387 19.649 56.931 19.649 56.117C19.649 55.5083 19.7333 54.962 19.902 54.478C20.0707 53.9867 20.3127 53.5687 20.628 53.224C20.9433 52.872 21.3283 52.6043 21.783 52.421C22.245 52.2377 22.7657 52.146 23.345 52.146C23.785 52.146 24.2067 52.2083 24.61 52.333C25.0207 52.4577 25.3727 52.6337 25.666 52.861C25.7833 52.9417 25.8603 53.0333 25.897 53.136C25.9337 53.2387 25.9373 53.3377 25.908 53.433C25.886 53.521 25.8383 53.598 25.765 53.664C25.699 53.7227 25.6147 53.7557 25.512 53.763C25.4093 53.763 25.2993 53.7227 25.182 53.642C24.9253 53.444 24.643 53.301 24.335 53.213C24.0343 53.1177 23.7117 53.07 23.367 53.07C22.8023 53.07 22.322 53.191 21.926 53.433C21.5373 53.6677 21.2403 54.0123 21.035 54.467C20.837 54.9143 20.738 55.4643 20.738 56.117C20.738 56.7623 20.837 57.316 21.035 57.778C21.2403 58.2327 21.5373 58.581 21.926 58.823C22.322 59.0577 22.8023 59.175 23.367 59.175C23.7117 59.175 24.038 59.1273 24.346 59.032C24.6613 58.9367 24.951 58.79 25.215 58.592C25.3323 58.5113 25.4387 58.4747 25.534 58.482C25.6367 58.4893 25.721 58.5223 25.787 58.581C25.853 58.6323 25.897 58.7057 25.919 58.801C25.9483 58.889 25.9483 58.9807 25.919 59.076C25.8897 59.1713 25.8237 59.2557 25.721 59.329C25.4203 59.5857 25.061 59.78 24.643 59.912C24.2323 60.0367 23.7997 60.099 23.345 60.099ZM29.1161 60.099C28.5881 60.099 28.1298 59.9853 27.7411 59.758C27.3525 59.5307 27.0518 59.208 26.8391 58.79C26.6265 58.372 26.5201 57.8807 26.5201 57.316C26.5201 56.8907 26.5788 56.5093 26.6961 56.172C26.8208 55.8273 26.9968 55.534 27.2241 55.292C27.4515 55.05 27.7228 54.8667 28.0381 54.742C28.3608 54.61 28.7201 54.544 29.1161 54.544C29.6441 54.544 30.1025 54.6577 30.4911 54.885C30.8798 55.1123 31.1805 55.435 31.3931 55.853C31.6058 56.2637 31.7121 56.7513 31.7121 57.316C31.7121 57.7413 31.6498 58.1263 31.5251 58.471C31.4078 58.8157 31.2355 59.109 31.0081 59.351C30.7808 59.593 30.5058 59.78 30.1831 59.912C29.8678 60.0367 29.5121 60.099 29.1161 60.099ZM29.1161 59.307C29.4388 59.307 29.7175 59.23 29.9521 59.076C30.1941 58.922 30.3775 58.6983 30.5021 58.405C30.6341 58.1117 30.7001 57.7487 30.7001 57.316C30.7001 56.6707 30.5571 56.1793 30.2711 55.842C29.9851 55.5047 29.6001 55.336 29.1161 55.336C28.8008 55.336 28.5221 55.413 28.2801 55.567C28.0455 55.7137 27.8621 55.9337 27.7301 56.227C27.5981 56.5203 27.5321 56.8833 27.5321 57.316C27.5321 57.9613 27.6751 58.4563 27.9611 58.801C28.2545 59.1383 28.6395 59.307 29.1161 59.307ZM33.4894 60.077C33.3354 60.077 33.2144 60.033 33.1264 59.945C33.0384 59.857 32.9944 59.7287 32.9944 59.56V55.072C32.9944 54.9033 33.0384 54.7787 33.1264 54.698C33.2144 54.61 33.3354 54.566 33.4894 54.566C33.6434 54.566 33.7607 54.61 33.8414 54.698C33.9294 54.7787 33.9734 54.9033 33.9734 55.072V55.974L33.8524 55.809C34.0064 55.391 34.2557 55.0757 34.6004 54.863C34.9524 54.6503 35.3521 54.544 35.7994 54.544C36.2321 54.544 36.5877 54.621 36.8664 54.775C37.1451 54.929 37.3541 55.1637 37.4934 55.479C37.6327 55.7943 37.7024 56.194 37.7024 56.678V59.56C37.7024 59.7287 37.6584 59.857 37.5704 59.945C37.4897 60.033 37.3687 60.077 37.2074 60.077C37.0461 60.077 36.9214 60.033 36.8334 59.945C36.7454 59.857 36.7014 59.7287 36.7014 59.56V56.733C36.7014 56.2563 36.6097 55.908 36.4264 55.688C36.2431 55.468 35.9497 55.358 35.5464 55.358C35.0771 55.358 34.6994 55.5047 34.4134 55.798C34.1347 56.084 33.9954 56.4727 33.9954 56.964V59.56C33.9954 59.9047 33.8267 60.077 33.4894 60.077ZM41.6103 60.099C41.0677 60.099 40.5983 59.9853 40.2023 59.758C39.8063 59.5233 39.502 59.197 39.2893 58.779C39.0767 58.3537 38.9703 57.855 38.9703 57.283C38.9703 56.8577 39.029 56.4763 39.1463 56.139C39.271 55.8017 39.447 55.5157 39.6743 55.281C39.9017 55.039 40.1767 54.8557 40.4993 54.731C40.8293 54.6063 41.1997 54.544 41.6103 54.544C41.867 54.544 42.1383 54.5843 42.4243 54.665C42.7103 54.7457 42.9743 54.8777 43.2163 55.061C43.297 55.1197 43.3483 55.1893 43.3703 55.27C43.3923 55.3433 43.3923 55.4203 43.3703 55.501C43.3557 55.5817 43.319 55.6513 43.2603 55.71C43.209 55.7613 43.1393 55.7907 43.0513 55.798C42.9707 55.8053 42.8827 55.7797 42.7873 55.721C42.6113 55.589 42.4243 55.4937 42.2263 55.435C42.0357 55.3763 41.8523 55.347 41.6763 55.347C41.405 55.347 41.163 55.391 40.9503 55.479C40.745 55.567 40.569 55.6953 40.4223 55.864C40.283 56.0253 40.1767 56.227 40.1033 56.469C40.03 56.7037 39.9933 56.9787 39.9933 57.294C39.9933 57.9173 40.14 58.4087 40.4333 58.768C40.7267 59.12 41.141 59.296 41.6763 59.296C41.8523 59.296 42.0357 59.2703 42.2263 59.219C42.417 59.1603 42.604 59.065 42.7873 58.933C42.8827 58.8743 42.9707 58.8523 43.0513 58.867C43.132 58.8743 43.198 58.9073 43.2493 58.966C43.308 59.0173 43.3447 59.0833 43.3593 59.164C43.374 59.2373 43.3667 59.3143 43.3373 59.395C43.3153 59.4757 43.264 59.5417 43.1833 59.593C42.9487 59.769 42.692 59.8973 42.4133 59.978C42.1347 60.0587 41.867 60.099 41.6103 60.099ZM46.0856 60.099C45.5356 60.099 45.1176 59.9377 44.8316 59.615C44.5456 59.285 44.4026 58.812 44.4026 58.196V52.674C44.4026 52.5053 44.4466 52.3807 44.5346 52.3C44.6226 52.212 44.7436 52.168 44.8976 52.168C45.0589 52.168 45.1836 52.212 45.2716 52.3C45.3596 52.3807 45.4036 52.5053 45.4036 52.674V58.119C45.4036 58.5003 45.4806 58.7863 45.6346 58.977C45.7959 59.1603 46.0233 59.252 46.3166 59.252C46.3826 59.252 46.4413 59.252 46.4926 59.252C46.5439 59.2447 46.5953 59.2373 46.6466 59.23C46.7273 59.2227 46.7859 59.2447 46.8226 59.296C46.8593 59.3473 46.8776 59.45 46.8776 59.604C46.8776 59.7433 46.8446 59.8533 46.7786 59.934C46.7199 60.0073 46.6209 60.055 46.4816 60.077C46.4156 60.0843 46.3496 60.088 46.2836 60.088C46.2176 60.0953 46.1516 60.099 46.0856 60.099ZM49.6252 60.099C49.1925 60.099 48.8295 60.0183 48.5362 59.857C48.2502 59.6957 48.0375 59.4573 47.8982 59.142C47.7589 58.8267 47.6892 58.4307 47.6892 57.954V55.072C47.6892 54.9033 47.7295 54.7787 47.8102 54.698C47.8982 54.61 48.0229 54.566 48.1842 54.566C48.3455 54.566 48.4702 54.61 48.5582 54.698C48.6462 54.7787 48.6902 54.9033 48.6902 55.072V57.954C48.6902 58.4087 48.7819 58.746 48.9652 58.966C49.1485 59.1787 49.4382 59.285 49.8342 59.285C50.2742 59.285 50.6299 59.1383 50.9012 58.845C51.1799 58.5517 51.3192 58.163 51.3192 57.679V55.072C51.3192 54.9033 51.3595 54.7787 51.4402 54.698C51.5282 54.61 51.6529 54.566 51.8142 54.566C51.9755 54.566 52.1002 54.61 52.1882 54.698C52.2762 54.7787 52.3202 54.9033 52.3202 55.072V59.56C52.3202 59.9047 52.1589 60.077 51.8362 60.077C51.6749 60.077 51.5502 60.033 51.4622 59.945C51.3815 59.857 51.3412 59.7287 51.3412 59.56V58.603L51.4842 58.79C51.3375 59.2153 51.0992 59.5417 50.7692 59.769C50.4465 59.989 50.0652 60.099 49.6252 60.099ZM54.4259 60.055C54.2719 60.055 54.1509 60.0073 54.0629 59.912C53.9749 59.8167 53.9309 59.6847 53.9309 59.516V55.127C53.9309 54.951 53.9749 54.819 54.0629 54.731C54.1509 54.6357 54.2719 54.588 54.4259 54.588C54.5873 54.588 54.7119 54.6357 54.7999 54.731C54.8879 54.819 54.9319 54.951 54.9319 55.127V59.516C54.9319 59.6847 54.8879 59.8167 54.7999 59.912C54.7193 60.0073 54.5946 60.055 54.4259 60.055ZM54.4259 53.4C54.2279 53.4 54.0703 53.3487 53.9529 53.246C53.8429 53.136 53.7879 52.993 53.7879 52.817C53.7879 52.6263 53.8429 52.4833 53.9529 52.388C54.0703 52.2853 54.2279 52.234 54.4259 52.234C54.6386 52.234 54.7963 52.2853 54.8989 52.388C55.0089 52.4833 55.0639 52.6263 55.0639 52.817C55.0639 52.993 55.0089 53.136 54.8989 53.246C54.7963 53.3487 54.6386 53.4 54.4259 53.4ZM58.4553 60.099C58.0226 60.099 57.6596 60.0183 57.3663 59.857C57.0803 59.6957 56.8676 59.4573 56.7283 59.142C56.5889 58.8267 56.5193 58.4307 56.5193 57.954V55.072C56.5193 54.9033 56.5596 54.7787 56.6403 54.698C56.7283 54.61 56.8529 54.566 57.0143 54.566C57.1756 54.566 57.3003 54.61 57.3883 54.698C57.4763 54.7787 57.5203 54.9033 57.5203 55.072V57.954C57.5203 58.4087 57.6119 58.746 57.7953 58.966C57.9786 59.1787 58.2683 59.285 58.6643 59.285C59.1043 59.285 59.4599 59.1383 59.7313 58.845C60.0099 58.5517 60.1493 58.163 60.1493 57.679V55.072C60.1493 54.9033 60.1896 54.7787 60.2703 54.698C60.3583 54.61 60.4829 54.566 60.6443 54.566C60.8056 54.566 60.9303 54.61 61.0183 54.698C61.1063 54.7787 61.1503 54.9033 61.1503 55.072V59.56C61.1503 59.9047 60.9889 60.077 60.6663 60.077C60.5049 60.077 60.3803 60.033 60.2923 59.945C60.2116 59.857 60.1713 59.7287 60.1713 59.56V58.603L60.3143 58.79C60.1676 59.2153 59.9293 59.5417 59.5993 59.769C59.2766 59.989 58.8953 60.099 58.4553 60.099ZM67.9062 60.099C67.3782 60.099 66.9198 59.9853 66.5312 59.758C66.1425 59.5307 65.8418 59.208 65.6292 58.79C65.4165 58.372 65.3102 57.8807 65.3102 57.316C65.3102 56.8907 65.3688 56.5093 65.4862 56.172C65.6108 55.8273 65.7868 55.534 66.0142 55.292C66.2415 55.05 66.5128 54.8667 66.8282 54.742C67.1508 54.61 67.5102 54.544 67.9062 54.544C68.4342 54.544 68.8925 54.6577 69.2812 54.885C69.6698 55.1123 69.9705 55.435 70.1832 55.853C70.3958 56.2637 70.5022 56.7513 70.5022 57.316C70.5022 57.7413 70.4398 58.1263 70.3152 58.471C70.1978 58.8157 70.0255 59.109 69.7982 59.351C69.5708 59.593 69.2958 59.78 68.9732 59.912C68.6578 60.0367 68.3022 60.099 67.9062 60.099ZM67.9062 59.307C68.2288 59.307 68.5075 59.23 68.7422 59.076C68.9842 58.922 69.1675 58.6983 69.2922 58.405C69.4242 58.1117 69.4902 57.7487 69.4902 57.316C69.4902 56.6707 69.3472 56.1793 69.0612 55.842C68.7752 55.5047 68.3902 55.336 67.9062 55.336C67.5908 55.336 67.3122 55.413 67.0702 55.567C66.8355 55.7137 66.6522 55.9337 66.5202 56.227C66.3882 56.5203 66.3222 56.8833 66.3222 57.316C66.3222 57.9613 66.4652 58.4563 66.7512 58.801C67.0445 59.1383 67.4295 59.307 67.9062 59.307ZM76.8746 60.099C76.4419 60.099 76.0789 60.022 75.7856 59.868C75.4996 59.714 75.2833 59.4903 75.1366 59.197C74.9973 58.9037 74.9276 58.5443 74.9276 58.119V55.413H74.2236C74.0916 55.413 73.9889 55.38 73.9156 55.314C73.8423 55.2407 73.8056 55.1453 73.8056 55.028C73.8056 54.9033 73.8423 54.808 73.9156 54.742C73.9889 54.676 74.0916 54.643 74.2236 54.643H74.9276V53.444C74.9276 53.2753 74.9716 53.1507 75.0596 53.07C75.1476 52.982 75.2723 52.938 75.4336 52.938C75.5949 52.938 75.7159 52.982 75.7966 53.07C75.8846 53.1507 75.9286 53.2753 75.9286 53.444V54.643H77.2596C77.3989 54.643 77.5053 54.676 77.5786 54.742C77.6519 54.808 77.6886 54.9033 77.6886 55.028C77.6886 55.1453 77.6519 55.2407 77.5786 55.314C77.5053 55.38 77.3989 55.413 77.2596 55.413H75.9286V58.031C75.9286 58.4343 76.0129 58.7387 76.1816 58.944C76.3503 59.1493 76.6289 59.252 77.0176 59.252C77.1569 59.252 77.2743 59.241 77.3696 59.219C77.4649 59.1897 77.5493 59.175 77.6226 59.175C77.6886 59.1677 77.7436 59.1897 77.7876 59.241C77.8389 59.2923 77.8646 59.3877 77.8646 59.527C77.8646 59.6297 77.8463 59.725 77.8096 59.813C77.7803 59.8937 77.7179 59.9487 77.6226 59.978C77.5346 60.0073 77.4173 60.033 77.2706 60.055C77.1239 60.0843 76.9919 60.099 76.8746 60.099ZM81.0163 60.099C80.4369 60.099 79.9383 59.989 79.5203 59.769C79.1096 59.5417 78.7906 59.2227 78.5633 58.812C78.3359 58.394 78.2223 57.9027 78.2223 57.338C78.2223 56.7807 78.3323 56.293 78.5523 55.875C78.7796 55.457 79.0876 55.1307 79.4763 54.896C79.8723 54.6613 80.3233 54.544 80.8293 54.544C81.1886 54.544 81.5113 54.6063 81.7973 54.731C82.0906 54.8483 82.3399 55.0207 82.5453 55.248C82.7506 55.4753 82.9046 55.754 83.0073 56.084C83.1173 56.4067 83.1723 56.7733 83.1723 57.184C83.1723 57.3013 83.1356 57.393 83.0623 57.459C82.9963 57.5177 82.8973 57.547 82.7653 57.547H79.0033V56.909H82.5123L82.3253 57.063C82.3253 56.6817 82.2666 56.359 82.1493 56.095C82.0393 55.8237 81.8743 55.6183 81.6543 55.479C81.4416 55.3397 81.1739 55.27 80.8513 55.27C80.4993 55.27 80.1986 55.3543 79.9493 55.523C79.6999 55.6843 79.5093 55.9153 79.3773 56.216C79.2453 56.5093 79.1793 56.8503 79.1793 57.239V57.305C79.1793 57.965 79.3369 58.4637 79.6523 58.801C79.9676 59.1383 80.4223 59.307 81.0163 59.307C81.2509 59.307 81.4893 59.2777 81.7313 59.219C81.9806 59.1603 82.2189 59.054 82.4463 58.9C82.5563 58.834 82.6553 58.8047 82.7433 58.812C82.8386 58.812 82.9156 58.8413 82.9743 58.9C83.0329 58.9513 83.0696 59.0173 83.0843 59.098C83.0989 59.1713 83.0879 59.252 83.0513 59.34C83.0146 59.428 82.9449 59.505 82.8423 59.571C82.6003 59.7397 82.3106 59.8717 81.9733 59.967C81.6433 60.055 81.3243 60.099 81.0163 60.099ZM84.9343 60.077C84.7803 60.077 84.6593 60.033 84.5713 59.945C84.4833 59.857 84.4393 59.7287 84.4393 59.56V55.072C84.4393 54.9033 84.4833 54.7787 84.5713 54.698C84.6593 54.61 84.7803 54.566 84.9343 54.566C85.0883 54.566 85.2056 54.61 85.2863 54.698C85.3743 54.7787 85.4183 54.9033 85.4183 55.072V56.007L85.2973 55.809C85.4366 55.4057 85.6603 55.094 85.9683 54.874C86.2836 54.654 86.6576 54.544 87.0903 54.544C87.5449 54.544 87.9116 54.654 88.1903 54.874C88.4689 55.0867 88.6559 55.413 88.7513 55.853H88.5973C88.7293 55.4497 88.9639 55.1307 89.3013 54.896C89.6459 54.6613 90.0456 54.544 90.5003 54.544C90.9036 54.544 91.2336 54.6247 91.4903 54.786C91.7543 54.94 91.9523 55.1747 92.0843 55.49C92.2163 55.798 92.2823 56.194 92.2823 56.678V59.56C92.2823 59.7287 92.2383 59.857 92.1503 59.945C92.0623 60.033 91.9413 60.077 91.7873 60.077C91.6259 60.077 91.5013 60.033 91.4133 59.945C91.3253 59.857 91.2813 59.7287 91.2813 59.56V56.722C91.2813 56.2527 91.2006 55.908 91.0393 55.688C90.8779 55.468 90.6066 55.358 90.2253 55.358C89.8073 55.358 89.4736 55.5047 89.2243 55.798C88.9823 56.084 88.8613 56.48 88.8613 56.986V59.56C88.8613 59.7287 88.8173 59.857 88.7293 59.945C88.6486 60.033 88.5276 60.077 88.3663 60.077C88.2049 60.077 88.0803 60.033 87.9923 59.945C87.9043 59.857 87.8603 59.7287 87.8603 59.56V56.722C87.8603 56.2527 87.7796 55.908 87.6183 55.688C87.4569 55.468 87.1856 55.358 86.8043 55.358C86.3863 55.358 86.0526 55.5047 85.8033 55.798C85.5613 56.084 85.4403 56.48 85.4403 56.986V59.56C85.4403 59.9047 85.2716 60.077 84.9343 60.077ZM95.5969 60.099C95.2302 60.099 94.8965 60.0257 94.5959 59.879C94.3025 59.7323 94.0715 59.5343 93.9029 59.285C93.7415 59.0357 93.6609 58.757 93.6609 58.449C93.6609 58.053 93.7599 57.7413 93.9579 57.514C94.1559 57.2867 94.4895 57.1253 94.9589 57.03C95.4282 56.9273 96.0589 56.876 96.8509 56.876H97.3679V57.514H96.8729C96.3082 57.514 95.8609 57.5397 95.5309 57.591C95.2082 57.6423 94.9809 57.734 94.8489 57.866C94.7169 57.9907 94.6509 58.1667 94.6509 58.394C94.6509 58.68 94.7499 58.9147 94.9479 59.098C95.1532 59.2813 95.4319 59.373 95.7839 59.373C96.0625 59.373 96.3082 59.307 96.5209 59.175C96.7335 59.0357 96.9022 58.8523 97.0269 58.625C97.1515 58.3903 97.2139 58.1227 97.2139 57.822V56.557C97.2139 56.1243 97.1259 55.8127 96.9499 55.622C96.7739 55.424 96.4769 55.325 96.0589 55.325C95.8169 55.325 95.5675 55.358 95.3109 55.424C95.0542 55.49 94.7865 55.5927 94.5079 55.732C94.3979 55.7833 94.3025 55.8017 94.2219 55.787C94.1412 55.765 94.0752 55.721 94.0239 55.655C93.9799 55.5817 93.9542 55.5047 93.9469 55.424C93.9469 55.336 93.9652 55.2517 94.0019 55.171C94.0459 55.0903 94.1192 55.0317 94.2219 54.995C94.5445 54.8337 94.8635 54.72 95.1789 54.654C95.5015 54.5807 95.8022 54.544 96.0809 54.544C96.5575 54.544 96.9499 54.621 97.2579 54.775C97.5659 54.9217 97.7969 55.1527 97.9509 55.468C98.1049 55.776 98.1819 56.172 98.1819 56.656V59.56C98.1819 59.7287 98.1415 59.857 98.0609 59.945C97.9802 60.033 97.8629 60.077 97.7089 60.077C97.5622 60.077 97.4449 60.033 97.3569 59.945C97.2762 59.857 97.2359 59.7287 97.2359 59.56V58.779H97.3349C97.2762 59.0503 97.1662 59.285 97.0049 59.483C96.8435 59.681 96.6419 59.835 96.3999 59.945C96.1652 60.0477 95.8975 60.099 95.5969 60.099ZM103.274 60C103.113 60 102.985 59.9523 102.889 59.857C102.801 59.7617 102.757 59.6333 102.757 59.472V52.718C102.757 52.5493 102.801 52.421 102.889 52.333C102.977 52.245 103.102 52.201 103.263 52.201C103.432 52.201 103.56 52.245 103.648 52.333C103.736 52.421 103.78 52.5493 103.78 52.718V59.12H107.278C107.432 59.12 107.546 59.1567 107.619 59.23C107.7 59.3033 107.74 59.4097 107.74 59.549C107.74 59.6957 107.7 59.8093 107.619 59.89C107.546 59.9633 107.432 60 107.278 60H103.274ZM110.357 60.099C109.99 60.099 109.656 60.0257 109.356 59.879C109.062 59.7323 108.831 59.5343 108.663 59.285C108.501 59.0357 108.421 58.757 108.421 58.449C108.421 58.053 108.52 57.7413 108.718 57.514C108.916 57.2867 109.249 57.1253 109.719 57.03C110.188 56.9273 110.819 56.876 111.611 56.876H112.128V57.514H111.633C111.068 57.514 110.621 57.5397 110.291 57.591C109.968 57.6423 109.741 57.734 109.609 57.866C109.477 57.9907 109.411 58.1667 109.411 58.394C109.411 58.68 109.51 58.9147 109.708 59.098C109.913 59.2813 110.192 59.373 110.544 59.373C110.822 59.373 111.068 59.307 111.281 59.175C111.493 59.0357 111.662 58.8523 111.787 58.625C111.911 58.3903 111.974 58.1227 111.974 57.822V56.557C111.974 56.1243 111.886 55.8127 111.71 55.622C111.534 55.424 111.237 55.325 110.819 55.325C110.577 55.325 110.327 55.358 110.071 55.424C109.814 55.49 109.546 55.5927 109.268 55.732C109.158 55.7833 109.062 55.8017 108.982 55.787C108.901 55.765 108.835 55.721 108.784 55.655C108.74 55.5817 108.714 55.5047 108.707 55.424C108.707 55.336 108.725 55.2517 108.762 55.171C108.806 55.0903 108.879 55.0317 108.982 54.995C109.304 54.8337 109.623 54.72 109.939 54.654C110.261 54.5807 110.562 54.544 110.841 54.544C111.317 54.544 111.71 54.621 112.018 54.775C112.326 54.9217 112.557 55.1527 112.711 55.468C112.865 55.776 112.942 56.172 112.942 56.656V59.56C112.942 59.7287 112.901 59.857 112.821 59.945C112.74 60.033 112.623 60.077 112.469 60.077C112.322 60.077 112.205 60.033 112.117 59.945C112.036 59.857 111.996 59.7287 111.996 59.56V58.779H112.095C112.036 59.0503 111.926 59.285 111.765 59.483C111.603 59.681 111.402 59.835 111.16 59.945C110.925 60.0477 110.657 60.099 110.357 60.099ZM116.838 60.099C116.295 60.099 115.826 59.9853 115.43 59.758C115.034 59.5233 114.73 59.197 114.517 58.779C114.304 58.3537 114.198 57.855 114.198 57.283C114.198 56.8577 114.257 56.4763 114.374 56.139C114.499 55.8017 114.675 55.5157 114.902 55.281C115.129 55.039 115.404 54.8557 115.727 54.731C116.057 54.6063 116.427 54.544 116.838 54.544C117.095 54.544 117.366 54.5843 117.652 54.665C117.938 54.7457 118.202 54.8777 118.444 55.061C118.525 55.1197 118.576 55.1893 118.598 55.27C118.62 55.3433 118.62 55.4203 118.598 55.501C118.583 55.5817 118.547 55.6513 118.488 55.71C118.437 55.7613 118.367 55.7907 118.279 55.798C118.198 55.8053 118.11 55.7797 118.015 55.721C117.839 55.589 117.652 55.4937 117.454 55.435C117.263 55.3763 117.08 55.347 116.904 55.347C116.633 55.347 116.391 55.391 116.178 55.479C115.973 55.567 115.797 55.6953 115.65 55.864C115.511 56.0253 115.404 56.227 115.331 56.469C115.258 56.7037 115.221 56.9787 115.221 57.294C115.221 57.9173 115.368 58.4087 115.661 58.768C115.954 59.12 116.369 59.296 116.904 59.296C117.08 59.296 117.263 59.2703 117.454 59.219C117.645 59.1603 117.832 59.065 118.015 58.933C118.11 58.8743 118.198 58.8523 118.279 58.867C118.36 58.8743 118.426 58.9073 118.477 58.966C118.536 59.0173 118.572 59.0833 118.587 59.164C118.602 59.2373 118.594 59.3143 118.565 59.395C118.543 59.4757 118.492 59.5417 118.411 59.593C118.176 59.769 117.92 59.8973 117.641 59.978C117.362 60.0587 117.095 60.099 116.838 60.099ZM116.816 62.123C116.677 62.123 116.534 62.112 116.387 62.09C116.248 62.0753 116.119 62.0423 116.002 61.991C115.914 61.9617 115.852 61.9103 115.815 61.837C115.786 61.7637 115.782 61.6903 115.804 61.617C115.826 61.551 115.87 61.4997 115.936 61.463C116.002 61.4337 116.079 61.4373 116.167 61.474C116.255 61.5033 116.347 61.5253 116.442 61.54C116.537 61.562 116.644 61.573 116.761 61.573C116.959 61.573 117.113 61.54 117.223 61.474C117.34 61.408 117.399 61.309 117.399 61.177C117.399 61.089 117.366 61.0193 117.3 60.968C117.234 60.9167 117.128 60.891 116.981 60.891C116.922 60.891 116.864 60.891 116.805 60.891C116.754 60.8983 116.695 60.913 116.629 60.935C116.57 60.9497 116.519 60.957 116.475 60.957C116.438 60.957 116.402 60.9423 116.365 60.913C116.336 60.891 116.317 60.858 116.31 60.814C116.303 60.77 116.303 60.7113 116.31 60.638L116.442 59.78H117.047L116.904 60.616L116.618 60.528C116.706 60.506 116.794 60.4877 116.882 60.473C116.97 60.4583 117.051 60.451 117.124 60.451C117.395 60.451 117.619 60.517 117.795 60.649C117.971 60.781 118.059 60.968 118.059 61.21C118.059 61.4813 117.942 61.7013 117.707 61.87C117.48 62.0387 117.183 62.123 116.816 62.123ZM121.8 60.099C121.272 60.099 120.813 59.9853 120.425 59.758C120.036 59.5307 119.735 59.208 119.523 58.79C119.31 58.372 119.204 57.8807 119.204 57.316C119.204 56.8907 119.262 56.5093 119.38 56.172C119.504 55.8273 119.68 55.534 119.908 55.292C120.135 55.05 120.406 54.8667 120.722 54.742C121.044 54.61 121.404 54.544 121.8 54.544C122.328 54.544 122.786 54.6577 123.175 54.885C123.563 55.1123 123.864 55.435 124.077 55.853C124.289 56.2637 124.396 56.7513 124.396 57.316C124.396 57.7413 124.333 58.1263 124.209 58.471C124.091 58.8157 123.919 59.109 123.692 59.351C123.464 59.593 123.189 59.78 122.867 59.912C122.551 60.0367 122.196 60.099 121.8 60.099ZM121.8 59.307C122.122 59.307 122.401 59.23 122.636 59.076C122.878 58.922 123.061 58.6983 123.186 58.405C123.318 58.1117 123.384 57.7487 123.384 57.316C123.384 56.6707 123.241 56.1793 122.955 55.842C122.669 55.5047 122.284 55.336 121.8 55.336C121.484 55.336 121.206 55.413 120.964 55.567C120.729 55.7137 120.546 55.9337 120.414 56.227C120.282 56.5203 120.216 56.8833 120.216 57.316C120.216 57.9613 120.359 58.4563 120.645 58.801C120.938 59.1383 121.323 59.307 121.8 59.307ZM130.592 60.099C130.123 60.099 129.708 59.989 129.349 59.769C128.997 59.5417 128.722 59.219 128.524 58.801C128.326 58.3757 128.227 57.8807 128.227 57.316C128.227 56.744 128.322 56.2527 128.513 55.842C128.711 55.424 128.986 55.105 129.338 54.885C129.697 54.6577 130.115 54.544 130.592 54.544C131.069 54.544 131.479 54.665 131.824 54.907C132.169 55.1417 132.4 55.457 132.517 55.853H132.396V52.674C132.396 52.5053 132.436 52.3807 132.517 52.3C132.605 52.212 132.73 52.168 132.891 52.168C133.052 52.168 133.177 52.212 133.265 52.3C133.353 52.3807 133.397 52.5053 133.397 52.674V59.56C133.397 59.7287 133.353 59.857 133.265 59.945C133.177 60.033 133.052 60.077 132.891 60.077C132.737 60.077 132.616 60.033 132.528 59.945C132.44 59.857 132.396 59.7287 132.396 59.56V58.559L132.517 58.757C132.407 59.1677 132.176 59.494 131.824 59.736C131.479 59.978 131.069 60.099 130.592 60.099ZM130.823 59.307C131.146 59.307 131.424 59.23 131.659 59.076C131.901 58.922 132.084 58.6983 132.209 58.405C132.341 58.1117 132.407 57.7487 132.407 57.316C132.407 56.6707 132.264 56.1793 131.978 55.842C131.692 55.5047 131.307 55.336 130.823 55.336C130.508 55.336 130.229 55.413 129.987 55.567C129.752 55.7137 129.569 55.9337 129.437 56.227C129.305 56.5203 129.239 56.8833 129.239 57.316C129.239 57.9613 129.382 58.4563 129.668 58.801C129.961 59.1383 130.346 59.307 130.823 59.307ZM137.477 60.099C136.898 60.099 136.399 59.989 135.981 59.769C135.571 59.5417 135.252 59.2227 135.024 58.812C134.797 58.394 134.683 57.9027 134.683 57.338C134.683 56.7807 134.793 56.293 135.013 55.875C135.241 55.457 135.549 55.1307 135.937 54.896C136.333 54.6613 136.784 54.544 137.29 54.544C137.65 54.544 137.972 54.6063 138.258 54.731C138.552 54.8483 138.801 55.0207 139.006 55.248C139.212 55.4753 139.366 55.754 139.468 56.084C139.578 56.4067 139.633 56.7733 139.633 57.184C139.633 57.3013 139.597 57.393 139.523 57.459C139.457 57.5177 139.358 57.547 139.226 57.547H135.464V56.909H138.973L138.786 57.063C138.786 56.6817 138.728 56.359 138.61 56.095C138.5 55.8237 138.335 55.6183 138.115 55.479C137.903 55.3397 137.635 55.27 137.312 55.27C136.96 55.27 136.66 55.3543 136.41 55.523C136.161 55.6843 135.97 55.9153 135.838 56.216C135.706 56.5093 135.64 56.8503 135.64 57.239V57.305C135.64 57.965 135.798 58.4637 136.113 58.801C136.429 59.1383 136.883 59.307 137.477 59.307C137.712 59.307 137.95 59.2777 138.192 59.219C138.442 59.1603 138.68 59.054 138.907 58.9C139.017 58.834 139.116 58.8047 139.204 58.812C139.3 58.812 139.377 58.8413 139.435 58.9C139.494 58.9513 139.531 59.0173 139.545 59.098C139.56 59.1713 139.549 59.252 139.512 59.34C139.476 59.428 139.406 59.505 139.303 59.571C139.061 59.7397 138.772 59.8717 138.434 59.967C138.104 60.055 137.785 60.099 137.477 60.099ZM144.384 60.077C144.223 60.077 144.098 60.033 144.01 59.945C143.922 59.8497 143.878 59.7177 143.878 59.549V52.762C143.878 52.5933 143.922 52.465 144.01 52.377C144.106 52.289 144.234 52.245 144.395 52.245H147.013C147.849 52.245 148.491 52.443 148.938 52.839C149.393 53.2277 149.62 53.7813 149.62 54.5C149.62 54.9693 149.518 55.3727 149.312 55.71C149.107 56.04 148.81 56.293 148.421 56.469C148.033 56.645 147.563 56.733 147.013 56.733L147.123 56.579H147.365C147.659 56.579 147.912 56.6523 148.124 56.799C148.344 56.9457 148.539 57.1803 148.707 57.503L149.719 59.362C149.785 59.4793 149.815 59.593 149.807 59.703C149.8 59.813 149.76 59.9047 149.686 59.978C149.613 60.044 149.507 60.077 149.367 60.077C149.221 60.077 149.103 60.0477 149.015 59.989C148.927 59.923 148.85 59.8277 148.784 59.703L147.596 57.525C147.435 57.217 147.252 57.0153 147.046 56.92C146.841 56.8173 146.566 56.766 146.221 56.766H144.901V59.549C144.901 59.7177 144.857 59.8497 144.769 59.945C144.689 60.033 144.56 60.077 144.384 60.077ZM144.901 55.974H146.848C147.435 55.974 147.875 55.853 148.168 55.611C148.462 55.3617 148.608 54.9987 148.608 54.522C148.608 54.0453 148.462 53.686 148.168 53.444C147.875 53.202 147.435 53.081 146.848 53.081H144.901V55.974ZM153.494 60.099C152.914 60.099 152.416 59.989 151.998 59.769C151.587 59.5417 151.268 59.2227 151.041 58.812C150.813 58.394 150.7 57.9027 150.7 57.338C150.7 56.7807 150.81 56.293 151.03 55.875C151.257 55.457 151.565 55.1307 151.954 54.896C152.35 54.6613 152.801 54.544 153.307 54.544C153.666 54.544 153.989 54.6063 154.275 54.731C154.568 54.8483 154.817 55.0207 155.023 55.248C155.228 55.4753 155.382 55.754 155.485 56.084C155.595 56.4067 155.65 56.7733 155.65 57.184C155.65 57.3013 155.613 57.393 155.54 57.459C155.474 57.5177 155.375 57.547 155.243 57.547H151.481V56.909H154.99L154.803 57.063C154.803 56.6817 154.744 56.359 154.627 56.095C154.517 55.8237 154.352 55.6183 154.132 55.479C153.919 55.3397 153.651 55.27 153.329 55.27C152.977 55.27 152.676 55.3543 152.427 55.523C152.177 55.6843 151.987 55.9153 151.855 56.216C151.723 56.5093 151.657 56.8503 151.657 57.239V57.305C151.657 57.965 151.814 58.4637 152.13 58.801C152.445 59.1383 152.9 59.307 153.494 59.307C153.728 59.307 153.967 59.2777 154.209 59.219C154.458 59.1603 154.696 59.054 154.924 58.9C155.034 58.834 155.133 58.8047 155.221 58.812C155.316 58.812 155.393 58.8413 155.452 58.9C155.51 58.9513 155.547 59.0173 155.562 59.098C155.576 59.1713 155.565 59.252 155.529 59.34C155.492 59.428 155.422 59.505 155.32 59.571C155.078 59.7397 154.788 59.8717 154.451 59.967C154.121 60.055 153.802 60.099 153.494 60.099ZM157.39 62.057C157.236 62.057 157.115 62.013 157.027 61.925C156.939 61.837 156.895 61.7123 156.895 61.551V55.072C156.895 54.9033 156.939 54.7787 157.027 54.698C157.115 54.61 157.236 54.566 157.39 54.566C157.551 54.566 157.672 54.61 157.753 54.698C157.841 54.7787 157.885 54.9033 157.885 55.072V56.073L157.764 55.875C157.881 55.4717 158.112 55.149 158.457 54.907C158.801 54.665 159.216 54.544 159.7 54.544C160.176 54.544 160.591 54.6577 160.943 54.885C161.295 55.105 161.57 55.424 161.768 55.842C161.966 56.2527 162.065 56.744 162.065 57.316C162.065 57.8807 161.966 58.3757 161.768 58.801C161.577 59.219 161.302 59.5417 160.943 59.769C160.591 59.989 160.176 60.099 159.7 60.099C159.223 60.099 158.812 59.978 158.468 59.736C158.123 59.494 157.892 59.175 157.775 58.779H157.896V61.551C157.896 61.7123 157.852 61.837 157.764 61.925C157.676 62.013 157.551 62.057 157.39 62.057ZM159.469 59.307C159.784 59.307 160.059 59.23 160.294 59.076C160.536 58.922 160.723 58.6983 160.855 58.405C160.987 58.1117 161.053 57.7487 161.053 57.316C161.053 56.6707 160.91 56.1793 160.624 55.842C160.338 55.5047 159.953 55.336 159.469 55.336C159.146 55.336 158.864 55.413 158.622 55.567C158.387 55.7137 158.204 55.9337 158.072 56.227C157.947 56.5203 157.885 56.8833 157.885 57.316C157.885 57.9613 158.028 58.4563 158.314 58.801C158.6 59.1383 158.985 59.307 159.469 59.307ZM165.826 60.099C165.247 60.099 164.748 59.989 164.33 59.769C163.919 59.5417 163.6 59.2227 163.373 58.812C163.146 58.394 163.032 57.9027 163.032 57.338C163.032 56.7807 163.142 56.293 163.362 55.875C163.589 55.457 163.897 55.1307 164.286 54.896C164.682 54.6613 165.133 54.544 165.639 54.544C165.998 54.544 166.321 54.6063 166.607 54.731C166.9 54.8483 167.15 55.0207 167.355 55.248C167.56 55.4753 167.714 55.754 167.817 56.084C167.927 56.4067 167.982 56.7733 167.982 57.184C167.982 57.3013 167.945 57.393 167.872 57.459C167.806 57.5177 167.707 57.547 167.575 57.547H163.813V56.909H167.322L167.135 57.063C167.135 56.6817 167.076 56.359 166.959 56.095C166.849 55.8237 166.684 55.6183 166.464 55.479C166.251 55.3397 165.984 55.27 165.661 55.27C165.309 55.27 165.008 55.3543 164.759 55.523C164.51 55.6843 164.319 55.9153 164.187 56.216C164.055 56.5093 163.989 56.8503 163.989 57.239V57.305C163.989 57.965 164.147 58.4637 164.462 58.801C164.777 59.1383 165.232 59.307 165.826 59.307C166.061 59.307 166.299 59.2777 166.541 59.219C166.79 59.1603 167.029 59.054 167.256 58.9C167.366 58.834 167.465 58.8047 167.553 58.812C167.648 58.812 167.725 58.8413 167.784 58.9C167.843 58.9513 167.879 59.0173 167.894 59.098C167.909 59.1713 167.898 59.252 167.861 59.34C167.824 59.428 167.755 59.505 167.652 59.571C167.41 59.7397 167.12 59.8717 166.783 59.967C166.453 60.055 166.134 60.099 165.826 60.099ZM171.438 60.099C171.005 60.099 170.642 60.022 170.349 59.868C170.063 59.714 169.847 59.4903 169.7 59.197C169.561 58.9037 169.491 58.5443 169.491 58.119V55.413H168.787C168.655 55.413 168.552 55.38 168.479 55.314C168.406 55.2407 168.369 55.1453 168.369 55.028C168.369 54.9033 168.406 54.808 168.479 54.742C168.552 54.676 168.655 54.643 168.787 54.643H169.491V53.444C169.491 53.2753 169.535 53.1507 169.623 53.07C169.711 52.982 169.836 52.938 169.997 52.938C170.158 52.938 170.279 52.982 170.36 53.07C170.448 53.1507 170.492 53.2753 170.492 53.444V54.643H171.823C171.962 54.643 172.069 54.676 172.142 54.742C172.215 54.808 172.252 54.9033 172.252 55.028C172.252 55.1453 172.215 55.2407 172.142 55.314C172.069 55.38 171.962 55.413 171.823 55.413H170.492V58.031C170.492 58.4343 170.576 58.7387 170.745 58.944C170.914 59.1493 171.192 59.252 171.581 59.252C171.72 59.252 171.838 59.241 171.933 59.219C172.028 59.1897 172.113 59.175 172.186 59.175C172.252 59.1677 172.307 59.1897 172.351 59.241C172.402 59.2923 172.428 59.3877 172.428 59.527C172.428 59.6297 172.41 59.725 172.373 59.813C172.344 59.8937 172.281 59.9487 172.186 59.978C172.098 60.0073 171.981 60.033 171.834 60.055C171.687 60.0843 171.555 60.099 171.438 60.099ZM173.739 60.055C173.585 60.055 173.464 60.0073 173.376 59.912C173.288 59.8167 173.244 59.6847 173.244 59.516V55.127C173.244 54.951 173.288 54.819 173.376 54.731C173.464 54.6357 173.585 54.588 173.739 54.588C173.901 54.588 174.025 54.6357 174.113 54.731C174.201 54.819 174.245 54.951 174.245 55.127V59.516C174.245 59.6847 174.201 59.8167 174.113 59.912C174.033 60.0073 173.908 60.055 173.739 60.055ZM173.739 53.4C173.541 53.4 173.384 53.3487 173.266 53.246C173.156 53.136 173.101 52.993 173.101 52.817C173.101 52.6263 173.156 52.4833 173.266 52.388C173.384 52.2853 173.541 52.234 173.739 52.234C173.952 52.234 174.11 52.2853 174.212 52.388C174.322 52.4833 174.377 52.6263 174.377 52.817C174.377 52.993 174.322 53.136 174.212 53.246C174.11 53.3487 173.952 53.4 173.739 53.4ZM178.176 60.099C177.633 60.099 177.164 59.9853 176.768 59.758C176.372 59.5233 176.067 59.197 175.855 58.779C175.642 58.3537 175.536 57.855 175.536 57.283C175.536 56.8577 175.594 56.4763 175.712 56.139C175.836 55.8017 176.012 55.5157 176.24 55.281C176.467 55.039 176.742 54.8557 177.065 54.731C177.395 54.6063 177.765 54.544 178.176 54.544C178.432 54.544 178.704 54.5843 178.99 54.665C179.276 54.7457 179.54 54.8777 179.782 55.061C179.862 55.1197 179.914 55.1893 179.936 55.27C179.958 55.3433 179.958 55.4203 179.936 55.501C179.921 55.5817 179.884 55.6513 179.826 55.71C179.774 55.7613 179.705 55.7907 179.617 55.798C179.536 55.8053 179.448 55.7797 179.353 55.721C179.177 55.589 178.99 55.4937 178.792 55.435C178.601 55.3763 178.418 55.347 178.242 55.347C177.97 55.347 177.728 55.391 177.516 55.479C177.31 55.567 177.134 55.6953 176.988 55.864C176.848 56.0253 176.742 56.227 176.669 56.469C176.595 56.7037 176.559 56.9787 176.559 57.294C176.559 57.9173 176.705 58.4087 176.999 58.768C177.292 59.12 177.706 59.296 178.242 59.296C178.418 59.296 178.601 59.2703 178.792 59.219C178.982 59.1603 179.169 59.065 179.353 58.933C179.448 58.8743 179.536 58.8523 179.617 58.867C179.697 58.8743 179.763 58.9073 179.815 58.966C179.873 59.0173 179.91 59.0833 179.925 59.164C179.939 59.2373 179.932 59.3143 179.903 59.395C179.881 59.4757 179.829 59.5417 179.749 59.593C179.514 59.769 179.257 59.8973 178.979 59.978C178.7 60.0587 178.432 60.099 178.176 60.099ZM178.154 62.123C178.014 62.123 177.871 62.112 177.725 62.09C177.585 62.0753 177.457 62.0423 177.34 61.991C177.252 61.9617 177.189 61.9103 177.153 61.837C177.123 61.7637 177.12 61.6903 177.142 61.617C177.164 61.551 177.208 61.4997 177.274 61.463C177.34 61.4337 177.417 61.4373 177.505 61.474C177.593 61.5033 177.684 61.5253 177.78 61.54C177.875 61.562 177.981 61.573 178.099 61.573C178.297 61.573 178.451 61.54 178.561 61.474C178.678 61.408 178.737 61.309 178.737 61.177C178.737 61.089 178.704 61.0193 178.638 60.968C178.572 60.9167 178.465 60.891 178.319 60.891C178.26 60.891 178.201 60.891 178.143 60.891C178.091 60.8983 178.033 60.913 177.967 60.935C177.908 60.9497 177.857 60.957 177.813 60.957C177.776 60.957 177.739 60.9423 177.703 60.913C177.673 60.891 177.655 60.858 177.648 60.814C177.64 60.77 177.64 60.7113 177.648 60.638L177.78 59.78H178.385L178.242 60.616L177.956 60.528C178.044 60.506 178.132 60.4877 178.22 60.473C178.308 60.4583 178.388 60.451 178.462 60.451C178.733 60.451 178.957 60.517 179.133 60.649C179.309 60.781 179.397 60.968 179.397 61.21C179.397 61.4813 179.279 61.7013 179.045 61.87C178.817 62.0387 178.52 62.123 178.154 62.123ZM182.673 60.099C182.306 60.099 181.973 60.0257 181.672 59.879C181.379 59.7323 181.148 59.5343 180.979 59.285C180.818 59.0357 180.737 58.757 180.737 58.449C180.737 58.053 180.836 57.7413 181.034 57.514C181.232 57.2867 181.566 57.1253 182.035 57.03C182.504 56.9273 183.135 56.876 183.927 56.876H184.444V57.514H183.949C183.384 57.514 182.937 57.5397 182.607 57.591C182.284 57.6423 182.057 57.734 181.925 57.866C181.793 57.9907 181.727 58.1667 181.727 58.394C181.727 58.68 181.826 58.9147 182.024 59.098C182.229 59.2813 182.508 59.373 182.86 59.373C183.139 59.373 183.384 59.307 183.597 59.175C183.81 59.0357 183.978 58.8523 184.103 58.625C184.228 58.3903 184.29 58.1227 184.29 57.822V56.557C184.29 56.1243 184.202 55.8127 184.026 55.622C183.85 55.424 183.553 55.325 183.135 55.325C182.893 55.325 182.644 55.358 182.387 55.424C182.13 55.49 181.863 55.5927 181.584 55.732C181.474 55.7833 181.379 55.8017 181.298 55.787C181.217 55.765 181.151 55.721 181.1 55.655C181.056 55.5817 181.03 55.5047 181.023 55.424C181.023 55.336 181.041 55.2517 181.078 55.171C181.122 55.0903 181.195 55.0317 181.298 54.995C181.621 54.8337 181.94 54.72 182.255 54.654C182.578 54.5807 182.878 54.544 183.157 54.544C183.634 54.544 184.026 54.621 184.334 54.775C184.642 54.9217 184.873 55.1527 185.027 55.468C185.181 55.776 185.258 56.172 185.258 56.656V59.56C185.258 59.7287 185.218 59.857 185.137 59.945C185.056 60.033 184.939 60.077 184.785 60.077C184.638 60.077 184.521 60.033 184.433 59.945C184.352 59.857 184.312 59.7287 184.312 59.56V58.779H184.411C184.352 59.0503 184.242 59.285 184.081 59.483C183.92 59.681 183.718 59.835 183.476 59.945C183.241 60.0477 182.974 60.099 182.673 60.099ZM181.43 53.554C181.342 53.554 181.272 53.5283 181.221 53.477C181.177 53.4183 181.166 53.334 181.188 53.224C181.217 53.0553 181.261 52.8977 181.32 52.751C181.379 52.6043 181.456 52.476 181.551 52.366C181.654 52.2487 181.771 52.157 181.903 52.091C182.035 52.0177 182.189 51.981 182.365 51.981C182.541 51.981 182.699 52.025 182.838 52.113C182.977 52.1937 183.106 52.289 183.223 52.399C183.34 52.5017 183.458 52.5933 183.575 52.674C183.692 52.7547 183.821 52.795 183.96 52.795C184.121 52.795 184.257 52.7363 184.367 52.619C184.484 52.4943 184.561 52.3293 184.598 52.124C184.613 52.058 184.646 52.0067 184.697 51.97C184.748 51.9333 184.818 51.915 184.906 51.915C184.994 51.9223 185.06 51.9553 185.104 52.014C185.155 52.0653 185.17 52.146 185.148 52.256C185.111 52.476 185.042 52.6813 184.939 52.872C184.844 53.0553 184.715 53.2057 184.554 53.323C184.4 53.433 184.206 53.488 183.971 53.488C183.795 53.488 183.637 53.4477 183.498 53.367C183.359 53.2863 183.227 53.1947 183.102 53.092C182.985 52.982 182.867 52.8867 182.75 52.806C182.633 52.7253 182.508 52.685 182.376 52.685C182.215 52.685 182.075 52.7437 181.958 52.861C181.848 52.9783 181.775 53.1397 181.738 53.345C181.723 53.4183 181.69 53.4733 181.639 53.51C181.588 53.5467 181.518 53.5613 181.43 53.554ZM189.11 60.099C188.582 60.099 188.124 59.9853 187.735 59.758C187.347 59.5307 187.046 59.208 186.833 58.79C186.621 58.372 186.514 57.8807 186.514 57.316C186.514 56.8907 186.573 56.5093 186.69 56.172C186.815 55.8273 186.991 55.534 187.218 55.292C187.446 55.05 187.717 54.8667 188.032 54.742C188.355 54.61 188.714 54.544 189.11 54.544C189.638 54.544 190.097 54.6577 190.485 54.885C190.874 55.1123 191.175 55.435 191.387 55.853C191.6 56.2637 191.706 56.7513 191.706 57.316C191.706 57.7413 191.644 58.1263 191.519 58.471C191.402 58.8157 191.23 59.109 191.002 59.351C190.775 59.593 190.5 59.78 190.177 59.912C189.862 60.0367 189.506 60.099 189.11 60.099ZM189.11 59.307C189.433 59.307 189.712 59.23 189.946 59.076C190.188 58.922 190.372 58.6983 190.496 58.405C190.628 58.1117 190.694 57.7487 190.694 57.316C190.694 56.6707 190.551 56.1793 190.265 55.842C189.979 55.5047 189.594 55.336 189.11 55.336C188.795 55.336 188.516 55.413 188.274 55.567C188.04 55.7137 187.856 55.9337 187.724 56.227C187.592 56.5203 187.526 56.8833 187.526 57.316C187.526 57.9613 187.669 58.4563 187.955 58.801C188.249 59.1383 188.634 59.307 189.11 59.307ZM198.178 60.099C197.635 60.099 197.166 59.9853 196.77 59.758C196.374 59.5233 196.069 59.197 195.857 58.779C195.644 58.3537 195.538 57.855 195.538 57.283C195.538 56.8577 195.596 56.4763 195.714 56.139C195.838 55.8017 196.014 55.5157 196.242 55.281C196.469 55.039 196.744 54.8557 197.067 54.731C197.397 54.6063 197.767 54.544 198.178 54.544C198.434 54.544 198.706 54.5843 198.992 54.665C199.278 54.7457 199.542 54.8777 199.784 55.061C199.864 55.1197 199.916 55.1893 199.938 55.27C199.96 55.3433 199.96 55.4203 199.938 55.501C199.923 55.5817 199.886 55.6513 199.828 55.71C199.776 55.7613 199.707 55.7907 199.619 55.798C199.538 55.8053 199.45 55.7797 199.355 55.721C199.179 55.589 198.992 55.4937 198.794 55.435C198.603 55.3763 198.42 55.347 198.244 55.347C197.972 55.347 197.73 55.391 197.518 55.479C197.312 55.567 197.136 55.6953 196.99 55.864C196.85 56.0253 196.744 56.227 196.671 56.469C196.597 56.7037 196.561 56.9787 196.561 57.294C196.561 57.9173 196.707 58.4087 197.001 58.768C197.294 59.12 197.708 59.296 198.244 59.296C198.42 59.296 198.603 59.2703 198.794 59.219C198.984 59.1603 199.171 59.065 199.355 58.933C199.45 58.8743 199.538 58.8523 199.619 58.867C199.699 58.8743 199.765 58.9073 199.817 58.966C199.875 59.0173 199.912 59.0833 199.927 59.164C199.941 59.2373 199.934 59.3143 199.905 59.395C199.883 59.4757 199.831 59.5417 199.751 59.593C199.516 59.769 199.259 59.8973 198.981 59.978C198.702 60.0587 198.434 60.099 198.178 60.099ZM203.14 60.099C202.612 60.099 202.153 59.9853 201.765 59.758C201.376 59.5307 201.075 59.208 200.863 58.79C200.65 58.372 200.544 57.8807 200.544 57.316C200.544 56.8907 200.602 56.5093 200.72 56.172C200.844 55.8273 201.02 55.534 201.248 55.292C201.475 55.05 201.746 54.8667 202.062 54.742C202.384 54.61 202.744 54.544 203.14 54.544C203.668 54.544 204.126 54.6577 204.515 54.885C204.903 55.1123 205.204 55.435 205.417 55.853C205.629 56.2637 205.736 56.7513 205.736 57.316C205.736 57.7413 205.673 58.1263 205.549 58.471C205.431 58.8157 205.259 59.109 205.032 59.351C204.804 59.593 204.529 59.78 204.207 59.912C203.891 60.0367 203.536 60.099 203.14 60.099ZM203.14 59.307C203.462 59.307 203.741 59.23 203.976 59.076C204.218 58.922 204.401 58.6983 204.526 58.405C204.658 58.1117 204.724 57.7487 204.724 57.316C204.724 56.6707 204.581 56.1793 204.295 55.842C204.009 55.5047 203.624 55.336 203.14 55.336C202.824 55.336 202.546 55.413 202.304 55.567C202.069 55.7137 201.886 55.9337 201.754 56.227C201.622 56.5203 201.556 56.8833 201.556 57.316C201.556 57.9613 201.699 58.4563 201.985 58.801C202.278 59.1383 202.663 59.307 203.14 59.307ZM207.535 60.077C207.381 60.077 207.26 60.033 207.172 59.945C207.084 59.857 207.04 59.7287 207.04 59.56V55.072C207.04 54.9033 207.084 54.7787 207.172 54.698C207.26 54.61 207.381 54.566 207.535 54.566C207.689 54.566 207.806 54.61 207.887 54.698C207.975 54.7787 208.019 54.9033 208.019 55.072V56.007L207.898 55.809C208.037 55.4057 208.261 55.094 208.569 54.874C208.884 54.654 209.258 54.544 209.691 54.544C210.146 54.544 210.512 54.654 210.791 54.874C211.07 55.0867 211.257 55.413 211.352 55.853H211.198C211.33 55.4497 211.565 55.1307 211.902 54.896C212.247 54.6613 212.646 54.544 213.101 54.544C213.504 54.544 213.834 54.6247 214.091 54.786C214.355 54.94 214.553 55.1747 214.685 55.49C214.817 55.798 214.883 56.194 214.883 56.678V59.56C214.883 59.7287 214.839 59.857 214.751 59.945C214.663 60.033 214.542 60.077 214.388 60.077C214.227 60.077 214.102 60.033 214.014 59.945C213.926 59.857 213.882 59.7287 213.882 59.56V56.722C213.882 56.2527 213.801 55.908 213.64 55.688C213.479 55.468 213.207 55.358 212.826 55.358C212.408 55.358 212.074 55.5047 211.825 55.798C211.583 56.084 211.462 56.48 211.462 56.986V59.56C211.462 59.7287 211.418 59.857 211.33 59.945C211.249 60.033 211.128 60.077 210.967 60.077C210.806 60.077 210.681 60.033 210.593 59.945C210.505 59.857 210.461 59.7287 210.461 59.56V56.722C210.461 56.2527 210.38 55.908 210.219 55.688C210.058 55.468 209.786 55.358 209.405 55.358C208.987 55.358 208.653 55.5047 208.404 55.798C208.162 56.084 208.041 56.48 208.041 56.986V59.56C208.041 59.9047 207.872 60.077 207.535 60.077ZM219.856 60.077C219.702 60.077 219.581 60.033 219.493 59.945C219.405 59.857 219.361 59.7287 219.361 59.56V55.072C219.361 54.9033 219.405 54.7787 219.493 54.698C219.581 54.61 219.702 54.566 219.856 54.566C220.01 54.566 220.127 54.61 220.208 54.698C220.296 54.7787 220.34 54.9033 220.34 55.072V55.974L220.219 55.809C220.373 55.391 220.622 55.0757 220.967 54.863C221.319 54.6503 221.718 54.544 222.166 54.544C222.598 54.544 222.954 54.621 223.233 54.775C223.511 54.929 223.72 55.1637 223.86 55.479C223.999 55.7943 224.069 56.194 224.069 56.678V59.56C224.069 59.7287 224.025 59.857 223.937 59.945C223.856 60.033 223.735 60.077 223.574 60.077C223.412 60.077 223.288 60.033 223.2 59.945C223.112 59.857 223.068 59.7287 223.068 59.56V56.733C223.068 56.2563 222.976 55.908 222.793 55.688C222.609 55.468 222.316 55.358 221.913 55.358C221.443 55.358 221.066 55.5047 220.78 55.798C220.501 56.084 220.362 56.4727 220.362 56.964V59.56C220.362 59.9047 220.193 60.077 219.856 60.077ZM227.933 60.099C227.405 60.099 226.946 59.9853 226.558 59.758C226.169 59.5307 225.868 59.208 225.656 58.79C225.443 58.372 225.337 57.8807 225.337 57.316C225.337 56.8907 225.395 56.5093 225.513 56.172C225.637 55.8273 225.813 55.534 226.041 55.292C226.268 55.05 226.539 54.8667 226.855 54.742C227.177 54.61 227.537 54.544 227.933 54.544C228.461 54.544 228.919 54.6577 229.308 54.885C229.696 55.1123 229.997 55.435 230.21 55.853C230.422 56.2637 230.529 56.7513 230.529 57.316C230.529 57.7413 230.466 58.1263 230.342 58.471C230.224 58.8157 230.052 59.109 229.825 59.351C229.597 59.593 229.322 59.78 229 59.912C228.684 60.0367 228.329 60.099 227.933 60.099ZM227.933 59.307C228.255 59.307 228.534 59.23 228.769 59.076C229.011 58.922 229.194 58.6983 229.319 58.405C229.451 58.1117 229.517 57.7487 229.517 57.316C229.517 56.6707 229.374 56.1793 229.088 55.842C228.802 55.5047 228.417 55.336 227.933 55.336C227.617 55.336 227.339 55.413 227.097 55.567C226.862 55.7137 226.679 55.9337 226.547 56.227C226.415 56.5203 226.349 56.8833 226.349 57.316C226.349 57.9613 226.492 58.4563 226.778 58.801C227.071 59.1383 227.456 59.307 227.933 59.307ZM233.979 60.099C233.546 60.099 233.183 60.022 232.89 59.868C232.604 59.714 232.388 59.4903 232.241 59.197C232.102 58.9037 232.032 58.5443 232.032 58.119V55.413H231.328C231.196 55.413 231.093 55.38 231.02 55.314C230.947 55.2407 230.91 55.1453 230.91 55.028C230.91 54.9033 230.947 54.808 231.02 54.742C231.093 54.676 231.196 54.643 231.328 54.643H232.032V53.444C232.032 53.2753 232.076 53.1507 232.164 53.07C232.252 52.982 232.377 52.938 232.538 52.938C232.699 52.938 232.82 52.982 232.901 53.07C232.989 53.1507 233.033 53.2753 233.033 53.444V54.643H234.364C234.503 54.643 234.61 54.676 234.683 54.742C234.756 54.808 234.793 54.9033 234.793 55.028C234.793 55.1453 234.756 55.2407 234.683 55.314C234.61 55.38 234.503 55.413 234.364 55.413H233.033V58.031C233.033 58.4343 233.117 58.7387 233.286 58.944C233.455 59.1493 233.733 59.252 234.122 59.252C234.261 59.252 234.379 59.241 234.474 59.219C234.569 59.1897 234.654 59.175 234.727 59.175C234.793 59.1677 234.848 59.1897 234.892 59.241C234.943 59.2923 234.969 59.3877 234.969 59.527C234.969 59.6297 234.951 59.725 234.914 59.813C234.885 59.8937 234.822 59.9487 234.727 59.978C234.639 60.0073 234.522 60.033 234.375 60.055C234.228 60.0843 234.096 60.099 233.979 60.099ZM237.404 60.099C237.038 60.099 236.704 60.0257 236.403 59.879C236.11 59.7323 235.879 59.5343 235.71 59.285C235.549 59.0357 235.468 58.757 235.468 58.449C235.468 58.053 235.567 57.7413 235.765 57.514C235.963 57.2867 236.297 57.1253 236.766 57.03C237.236 56.9273 237.866 56.876 238.658 56.876H239.175V57.514H238.68C238.116 57.514 237.668 57.5397 237.338 57.591C237.016 57.6423 236.788 57.734 236.656 57.866C236.524 57.9907 236.458 58.1667 236.458 58.394C236.458 58.68 236.557 58.9147 236.755 59.098C236.961 59.2813 237.239 59.373 237.591 59.373C237.87 59.373 238.116 59.307 238.328 59.175C238.541 59.0357 238.71 58.8523 238.834 58.625C238.959 58.3903 239.021 58.1227 239.021 57.822V56.557C239.021 56.1243 238.933 55.8127 238.757 55.622C238.581 55.424 238.284 55.325 237.866 55.325C237.624 55.325 237.375 55.358 237.118 55.424C236.862 55.49 236.594 55.5927 236.315 55.732C236.205 55.7833 236.11 55.8017 236.029 55.787C235.949 55.765 235.883 55.721 235.831 55.655C235.787 55.5817 235.762 55.5047 235.754 55.424C235.754 55.336 235.773 55.2517 235.809 55.171C235.853 55.0903 235.927 55.0317 236.029 54.995C236.352 54.8337 236.671 54.72 236.986 54.654C237.309 54.5807 237.61 54.544 237.888 54.544C238.365 54.544 238.757 54.621 239.065 54.775C239.373 54.9217 239.604 55.1527 239.758 55.468C239.912 55.776 239.989 56.172 239.989 56.656V59.56C239.989 59.7287 239.949 59.857 239.868 59.945C239.788 60.033 239.67 60.077 239.516 60.077C239.37 60.077 239.252 60.033 239.164 59.945C239.084 59.857 239.043 59.7287 239.043 59.56V58.779H239.142C239.084 59.0503 238.974 59.285 238.812 59.483C238.651 59.681 238.449 59.835 238.207 59.945C237.973 60.0477 237.705 60.099 237.404 60.099ZM20.32 75.077C20.166 75.077 20.045 75.033 19.957 74.945C19.869 74.857 19.825 74.7287 19.825 74.56V70.072C19.825 69.9033 19.869 69.7787 19.957 69.698C20.045 69.61 20.166 69.566 20.32 69.566C20.474 69.566 20.5913 69.61 20.672 69.698C20.76 69.7787 20.804 69.9033 20.804 70.072V71.007L20.683 70.809C20.8223 70.4057 21.046 70.094 21.354 69.874C21.6693 69.654 22.0433 69.544 22.476 69.544C22.9307 69.544 23.2973 69.654 23.576 69.874C23.8547 70.0867 24.0417 70.413 24.137 70.853H23.983C24.115 70.4497 24.3497 70.1307 24.687 69.896C25.0317 69.6613 25.4313 69.544 25.886 69.544C26.2893 69.544 26.6193 69.6247 26.876 69.786C27.14 69.94 27.338 70.1747 27.47 70.49C27.602 70.798 27.668 71.194 27.668 71.678V74.56C27.668 74.7287 27.624 74.857 27.536 74.945C27.448 75.033 27.327 75.077 27.173 75.077C27.0117 75.077 26.887 75.033 26.799 74.945C26.711 74.857 26.667 74.7287 26.667 74.56V71.722C26.667 71.2527 26.5863 70.908 26.425 70.688C26.2637 70.468 25.9923 70.358 25.611 70.358C25.193 70.358 24.8593 70.5047 24.61 70.798C24.368 71.084 24.247 71.48 24.247 71.986V74.56C24.247 74.7287 24.203 74.857 24.115 74.945C24.0343 75.033 23.9133 75.077 23.752 75.077C23.5907 75.077 23.466 75.033 23.378 74.945C23.29 74.857 23.246 74.7287 23.246 74.56V71.722C23.246 71.2527 23.1653 70.908 23.004 70.688C22.8427 70.468 22.5713 70.358 22.19 70.358C21.772 70.358 21.4383 70.5047 21.189 70.798C20.947 71.084 20.826 71.48 20.826 71.986V74.56C20.826 74.9047 20.6573 75.077 20.32 75.077ZM31.7526 75.099C31.1733 75.099 30.6746 74.989 30.2566 74.769C29.8459 74.5417 29.5269 74.2227 29.2996 73.812C29.0723 73.394 28.9586 72.9027 28.9586 72.338C28.9586 71.7807 29.0686 71.293 29.2886 70.875C29.5159 70.457 29.8239 70.1307 30.2126 69.896C30.6086 69.6613 31.0596 69.544 31.5656 69.544C31.9249 69.544 32.2476 69.6063 32.5336 69.731C32.8269 69.8483 33.0763 70.0207 33.2816 70.248C33.4869 70.4753 33.6409 70.754 33.7436 71.084C33.8536 71.4067 33.9086 71.7733 33.9086 72.184C33.9086 72.3013 33.8719 72.393 33.7986 72.459C33.7326 72.5177 33.6336 72.547 33.5016 72.547H29.7396V71.909H33.2486L33.0616 72.063C33.0616 71.6817 33.0029 71.359 32.8856 71.095C32.7756 70.8237 32.6106 70.6183 32.3906 70.479C32.1779 70.3397 31.9103 70.27 31.5876 70.27C31.2356 70.27 30.9349 70.3543 30.6856 70.523C30.4363 70.6843 30.2456 70.9153 30.1136 71.216C29.9816 71.5093 29.9156 71.8503 29.9156 72.239V72.305C29.9156 72.965 30.0733 73.4637 30.3886 73.801C30.7039 74.1383 31.1586 74.307 31.7526 74.307C31.9873 74.307 32.2256 74.2777 32.4676 74.219C32.7169 74.1603 32.9553 74.054 33.1826 73.9C33.2926 73.834 33.3916 73.8047 33.4796 73.812C33.5749 73.812 33.6519 73.8413 33.7106 73.9C33.7693 73.9513 33.8059 74.0173 33.8206 74.098C33.8353 74.1713 33.8243 74.252 33.7876 74.34C33.7509 74.428 33.6813 74.505 33.5786 74.571C33.3366 74.7397 33.0469 74.8717 32.7096 74.967C32.3796 75.055 32.0606 75.099 31.7526 75.099ZM31.9616 68.873C31.9029 68.9537 31.8333 69.0013 31.7526 69.016C31.6793 69.0307 31.6059 69.0197 31.5326 68.983C31.4593 68.939 31.4079 68.8803 31.3786 68.807C31.3493 68.7337 31.3566 68.6493 31.4006 68.554L32.3026 66.805C32.3539 66.6877 32.4236 66.6143 32.5116 66.585C32.5996 66.5483 32.6876 66.541 32.7756 66.563C32.8709 66.585 32.9516 66.629 33.0176 66.695C33.0836 66.7537 33.1203 66.8307 33.1276 66.926C33.1423 67.014 33.1203 67.1057 33.0616 67.201L31.9616 68.873ZM37.1996 75.099C36.7303 75.099 36.3159 74.989 35.9566 74.769C35.6046 74.5417 35.3296 74.219 35.1316 73.801C34.9336 73.3757 34.8346 72.8807 34.8346 72.316C34.8346 71.744 34.9299 71.2527 35.1206 70.842C35.3186 70.424 35.5936 70.105 35.9456 69.885C36.3049 69.6577 36.7229 69.544 37.1996 69.544C37.6763 69.544 38.0869 69.665 38.4316 69.907C38.7763 70.1417 39.0073 70.457 39.1246 70.853H39.0036V67.674C39.0036 67.5053 39.0439 67.3807 39.1246 67.3C39.2126 67.212 39.3373 67.168 39.4986 67.168C39.6599 67.168 39.7846 67.212 39.8726 67.3C39.9606 67.3807 40.0046 67.5053 40.0046 67.674V74.56C40.0046 74.7287 39.9606 74.857 39.8726 74.945C39.7846 75.033 39.6599 75.077 39.4986 75.077C39.3446 75.077 39.2236 75.033 39.1356 74.945C39.0476 74.857 39.0036 74.7287 39.0036 74.56V73.559L39.1246 73.757C39.0146 74.1677 38.7836 74.494 38.4316 74.736C38.0869 74.978 37.6763 75.099 37.1996 75.099ZM37.4306 74.307C37.7533 74.307 38.0319 74.23 38.2666 74.076C38.5086 73.922 38.6919 73.6983 38.8166 73.405C38.9486 73.1117 39.0146 72.7487 39.0146 72.316C39.0146 71.6707 38.8716 71.1793 38.5856 70.842C38.2996 70.5047 37.9146 70.336 37.4306 70.336C37.1153 70.336 36.8366 70.413 36.5946 70.567C36.3599 70.7137 36.1766 70.9337 36.0446 71.227C35.9126 71.5203 35.8466 71.8833 35.8466 72.316C35.8466 72.9613 35.9896 73.4563 36.2756 73.801C36.5689 74.1383 36.9539 74.307 37.4306 74.307ZM42.1046 75.055C41.9506 75.055 41.8296 75.0073 41.7416 74.912C41.6536 74.8167 41.6096 74.6847 41.6096 74.516V70.127C41.6096 69.951 41.6536 69.819 41.7416 69.731C41.8296 69.6357 41.9506 69.588 42.1046 69.588C42.266 69.588 42.3906 69.6357 42.4786 69.731C42.5666 69.819 42.6106 69.951 42.6106 70.127V74.516C42.6106 74.6847 42.5666 74.8167 42.4786 74.912C42.398 75.0073 42.2733 75.055 42.1046 75.055ZM42.1046 68.4C41.9066 68.4 41.749 68.3487 41.6316 68.246C41.5216 68.136 41.4666 67.993 41.4666 67.817C41.4666 67.6263 41.5216 67.4833 41.6316 67.388C41.749 67.2853 41.9066 67.234 42.1046 67.234C42.3173 67.234 42.475 67.2853 42.5776 67.388C42.6876 67.4833 42.7426 67.6263 42.7426 67.817C42.7426 67.993 42.6876 68.136 42.5776 68.246C42.475 68.3487 42.3173 68.4 42.1046 68.4ZM45.925 75.099C45.5583 75.099 45.2247 75.0257 44.924 74.879C44.6307 74.7323 44.3997 74.5343 44.231 74.285C44.0697 74.0357 43.989 73.757 43.989 73.449C43.989 73.053 44.088 72.7413 44.286 72.514C44.484 72.2867 44.8177 72.1253 45.287 72.03C45.7563 71.9273 46.387 71.876 47.179 71.876H47.696V72.514H47.201C46.6363 72.514 46.189 72.5397 45.859 72.591C45.5363 72.6423 45.309 72.734 45.177 72.866C45.045 72.9907 44.979 73.1667 44.979 73.394C44.979 73.68 45.078 73.9147 45.276 74.098C45.4813 74.2813 45.76 74.373 46.112 74.373C46.3907 74.373 46.6363 74.307 46.849 74.175C47.0617 74.0357 47.2303 73.8523 47.355 73.625C47.4797 73.3903 47.542 73.1227 47.542 72.822V71.557C47.542 71.1243 47.454 70.8127 47.278 70.622C47.102 70.424 46.805 70.325 46.387 70.325C46.145 70.325 45.8957 70.358 45.639 70.424C45.3823 70.49 45.1147 70.5927 44.836 70.732C44.726 70.7833 44.6307 70.8017 44.55 70.787C44.4693 70.765 44.4033 70.721 44.352 70.655C44.308 70.5817 44.2823 70.5047 44.275 70.424C44.275 70.336 44.2933 70.2517 44.33 70.171C44.374 70.0903 44.4473 70.0317 44.55 69.995C44.8727 69.8337 45.1917 69.72 45.507 69.654C45.8297 69.5807 46.1303 69.544 46.409 69.544C46.8857 69.544 47.278 69.621 47.586 69.775C47.894 69.9217 48.125 70.1527 48.279 70.468C48.433 70.776 48.51 71.172 48.51 71.656V74.56C48.51 74.7287 48.4697 74.857 48.389 74.945C48.3083 75.033 48.191 75.077 48.037 75.077C47.8903 75.077 47.773 75.033 47.685 74.945C47.6043 74.857 47.564 74.7287 47.564 74.56V73.779H47.663C47.6043 74.0503 47.4943 74.285 47.333 74.483C47.1717 74.681 46.97 74.835 46.728 74.945C46.4933 75.0477 46.2257 75.099 45.925 75.099ZM54.9994 75.099C54.5301 75.099 54.1157 74.989 53.7564 74.769C53.4044 74.5417 53.1294 74.219 52.9314 73.801C52.7334 73.3757 52.6344 72.8807 52.6344 72.316C52.6344 71.744 52.7297 71.2527 52.9204 70.842C53.1184 70.424 53.3934 70.105 53.7454 69.885C54.1047 69.6577 54.5227 69.544 54.9994 69.544C55.4761 69.544 55.8867 69.665 56.2314 69.907C56.5761 70.1417 56.8071 70.457 56.9244 70.853H56.8034V67.674C56.8034 67.5053 56.8437 67.3807 56.9244 67.3C57.0124 67.212 57.1371 67.168 57.2984 67.168C57.4597 67.168 57.5844 67.212 57.6724 67.3C57.7604 67.3807 57.8044 67.5053 57.8044 67.674V74.56C57.8044 74.7287 57.7604 74.857 57.6724 74.945C57.5844 75.033 57.4597 75.077 57.2984 75.077C57.1444 75.077 57.0234 75.033 56.9354 74.945C56.8474 74.857 56.8034 74.7287 56.8034 74.56V73.559L56.9244 73.757C56.8144 74.1677 56.5834 74.494 56.2314 74.736C55.8867 74.978 55.4761 75.099 54.9994 75.099ZM55.2304 74.307C55.5531 74.307 55.8317 74.23 56.0664 74.076C56.3084 73.922 56.4917 73.6983 56.6164 73.405C56.7484 73.1117 56.8144 72.7487 56.8144 72.316C56.8144 71.6707 56.6714 71.1793 56.3854 70.842C56.0994 70.5047 55.7144 70.336 55.2304 70.336C54.9151 70.336 54.6364 70.413 54.3944 70.567C54.1597 70.7137 53.9764 70.9337 53.8444 71.227C53.7124 71.5203 53.6464 71.8833 53.6464 72.316C53.6464 72.9613 53.7894 73.4563 54.0754 73.801C54.3687 74.1383 54.7537 74.307 55.2304 74.307ZM61.1144 75.099C60.7478 75.099 60.4141 75.0257 60.1134 74.879C59.8201 74.7323 59.5891 74.5343 59.4204 74.285C59.2591 74.0357 59.1784 73.757 59.1784 73.449C59.1784 73.053 59.2774 72.7413 59.4754 72.514C59.6734 72.2867 60.0071 72.1253 60.4764 72.03C60.9458 71.9273 61.5764 71.876 62.3684 71.876H62.8854V72.514H62.3904C61.8258 72.514 61.3784 72.5397 61.0484 72.591C60.7258 72.6423 60.4984 72.734 60.3664 72.866C60.2344 72.9907 60.1684 73.1667 60.1684 73.394C60.1684 73.68 60.2674 73.9147 60.4654 74.098C60.6708 74.2813 60.9494 74.373 61.3014 74.373C61.5801 74.373 61.8258 74.307 62.0384 74.175C62.2511 74.0357 62.4198 73.8523 62.5444 73.625C62.6691 73.3903 62.7314 73.1227 62.7314 72.822V71.557C62.7314 71.1243 62.6434 70.8127 62.4674 70.622C62.2914 70.424 61.9944 70.325 61.5764 70.325C61.3344 70.325 61.0851 70.358 60.8284 70.424C60.5718 70.49 60.3041 70.5927 60.0254 70.732C59.9154 70.7833 59.8201 70.8017 59.7394 70.787C59.6588 70.765 59.5928 70.721 59.5414 70.655C59.4974 70.5817 59.4718 70.5047 59.4644 70.424C59.4644 70.336 59.4828 70.2517 59.5194 70.171C59.5634 70.0903 59.6368 70.0317 59.7394 69.995C60.0621 69.8337 60.3811 69.72 60.6964 69.654C61.0191 69.5807 61.3198 69.544 61.5984 69.544C62.0751 69.544 62.4674 69.621 62.7754 69.775C63.0834 69.9217 63.3144 70.1527 63.4684 70.468C63.6224 70.776 63.6994 71.172 63.6994 71.656V74.56C63.6994 74.7287 63.6591 74.857 63.5784 74.945C63.4978 75.033 63.3804 75.077 63.2264 75.077C63.0798 75.077 62.9624 75.033 62.8744 74.945C62.7938 74.857 62.7534 74.7287 62.7534 74.56V73.779H62.8524C62.7938 74.0503 62.6838 74.285 62.5224 74.483C62.3611 74.681 62.1594 74.835 61.9174 74.945C61.6828 75.0477 61.4151 75.099 61.1144 75.099ZM70.6838 75.077C70.5152 75.077 70.3868 75.033 70.2988 74.945C70.2108 74.8497 70.1668 74.7177 70.1668 74.549V68.114H67.7578C67.6185 68.114 67.5085 68.0773 67.4278 68.004C67.3472 67.9233 67.3068 67.8133 67.3068 67.674C67.3068 67.5347 67.3472 67.4283 67.4278 67.355C67.5085 67.2817 67.6185 67.245 67.7578 67.245H73.5988C73.7455 67.245 73.8555 67.2817 73.9288 67.355C74.0095 67.4283 74.0498 67.5347 74.0498 67.674C74.0498 67.8133 74.0095 67.9233 73.9288 68.004C73.8555 68.0773 73.7455 68.114 73.5988 68.114H71.1898V74.549C71.1898 74.7177 71.1458 74.8497 71.0578 74.945C70.9772 75.033 70.8525 75.077 70.6838 75.077ZM75.9328 75.099C75.5002 75.099 75.1372 75.0183 74.8438 74.857C74.5578 74.6957 74.3452 74.4573 74.2058 74.142C74.0665 73.8267 73.9968 73.4307 73.9968 72.954V70.072C73.9968 69.9033 74.0372 69.7787 74.1178 69.698C74.2058 69.61 74.3305 69.566 74.4918 69.566C74.6532 69.566 74.7778 69.61 74.8658 69.698C74.9538 69.7787 74.9978 69.9033 74.9978 70.072V72.954C74.9978 73.4087 75.0895 73.746 75.2728 73.966C75.4562 74.1787 75.7458 74.285 76.1418 74.285C76.5818 74.285 76.9375 74.1383 77.2088 73.845C77.4875 73.5517 77.6268 73.163 77.6268 72.679V70.072C77.6268 69.9033 77.6672 69.7787 77.7478 69.698C77.8358 69.61 77.9605 69.566 78.1218 69.566C78.2832 69.566 78.4078 69.61 78.4958 69.698C78.5838 69.7787 78.6278 69.9033 78.6278 70.072V74.56C78.6278 74.9047 78.4665 75.077 78.1438 75.077C77.9825 75.077 77.8578 75.033 77.7698 74.945C77.6892 74.857 77.6488 74.7287 77.6488 74.56V73.603L77.7918 73.79C77.6452 74.2153 77.4068 74.5417 77.0768 74.769C76.7542 74.989 76.3728 75.099 75.9328 75.099ZM80.7555 75.077C80.5869 75.077 80.4585 75.033 80.3705 74.945C80.2825 74.857 80.2385 74.7287 80.2385 74.56V70.072C80.2385 69.9033 80.2825 69.7787 80.3705 69.698C80.4585 69.61 80.5795 69.566 80.7335 69.566C80.8875 69.566 81.0049 69.61 81.0855 69.698C81.1735 69.7787 81.2175 69.9033 81.2175 70.072V70.919H81.1075C81.2249 70.479 81.4449 70.1453 81.7675 69.918C82.0902 69.6907 82.4972 69.5623 82.9885 69.533C83.1059 69.5257 83.2012 69.555 83.2745 69.621C83.3479 69.6797 83.3882 69.7823 83.3955 69.929C83.4029 70.0683 83.3699 70.182 83.2965 70.27C83.2232 70.3507 83.1095 70.3983 82.9555 70.413L82.7575 70.424C82.2735 70.4753 81.8995 70.633 81.6355 70.897C81.3789 71.161 81.2505 71.524 81.2505 71.986V74.56C81.2505 74.7287 81.2065 74.857 81.1185 74.945C81.0379 75.033 80.9169 75.077 80.7555 75.077ZM84.7731 75.077C84.6191 75.077 84.4981 75.033 84.4101 74.945C84.3221 74.857 84.2781 74.7287 84.2781 74.56V70.072C84.2781 69.9033 84.3221 69.7787 84.4101 69.698C84.4981 69.61 84.6191 69.566 84.7731 69.566C84.9271 69.566 85.0445 69.61 85.1251 69.698C85.2131 69.7787 85.2571 69.9033 85.2571 70.072V71.007L85.1361 70.809C85.2755 70.4057 85.4991 70.094 85.8071 69.874C86.1225 69.654 86.4965 69.544 86.9291 69.544C87.3838 69.544 87.7505 69.654 88.0291 69.874C88.3078 70.0867 88.4948 70.413 88.5901 70.853H88.4361C88.5681 70.4497 88.8028 70.1307 89.1401 69.896C89.4848 69.6613 89.8845 69.544 90.3391 69.544C90.7425 69.544 91.0725 69.6247 91.3291 69.786C91.5931 69.94 91.7911 70.1747 91.9231 70.49C92.0551 70.798 92.1211 71.194 92.1211 71.678V74.56C92.1211 74.7287 92.0771 74.857 91.9891 74.945C91.9011 75.033 91.7801 75.077 91.6261 75.077C91.4648 75.077 91.3401 75.033 91.2521 74.945C91.1641 74.857 91.1201 74.7287 91.1201 74.56V71.722C91.1201 71.2527 91.0395 70.908 90.8781 70.688C90.7168 70.468 90.4455 70.358 90.0641 70.358C89.6461 70.358 89.3125 70.5047 89.0631 70.798C88.8211 71.084 88.7001 71.48 88.7001 71.986V74.56C88.7001 74.7287 88.6561 74.857 88.5681 74.945C88.4875 75.033 88.3665 75.077 88.2051 75.077C88.0438 75.077 87.9191 75.033 87.8311 74.945C87.7431 74.857 87.6991 74.7287 87.6991 74.56V71.722C87.6991 71.2527 87.6185 70.908 87.4571 70.688C87.2958 70.468 87.0245 70.358 86.6431 70.358C86.2251 70.358 85.8915 70.5047 85.6421 70.798C85.4001 71.084 85.2791 71.48 85.2791 71.986V74.56C85.2791 74.9047 85.1105 75.077 84.7731 75.077ZM95.4357 75.099C95.0691 75.099 94.7354 75.0257 94.4347 74.879C94.1414 74.7323 93.9104 74.5343 93.7417 74.285C93.5804 74.0357 93.4997 73.757 93.4997 73.449C93.4997 73.053 93.5987 72.7413 93.7967 72.514C93.9947 72.2867 94.3284 72.1253 94.7977 72.03C95.2671 71.9273 95.8977 71.876 96.6897 71.876H97.2067V72.514H96.7117C96.1471 72.514 95.6997 72.5397 95.3697 72.591C95.0471 72.6423 94.8197 72.734 94.6877 72.866C94.5557 72.9907 94.4897 73.1667 94.4897 73.394C94.4897 73.68 94.5887 73.9147 94.7867 74.098C94.9921 74.2813 95.2707 74.373 95.6227 74.373C95.9014 74.373 96.1471 74.307 96.3597 74.175C96.5724 74.0357 96.7411 73.8523 96.8657 73.625C96.9904 73.3903 97.0527 73.1227 97.0527 72.822V71.557C97.0527 71.1243 96.9647 70.8127 96.7887 70.622C96.6127 70.424 96.3157 70.325 95.8977 70.325C95.6557 70.325 95.4064 70.358 95.1497 70.424C94.8931 70.49 94.6254 70.5927 94.3467 70.732C94.2367 70.7833 94.1414 70.8017 94.0607 70.787C93.9801 70.765 93.9141 70.721 93.8627 70.655C93.8187 70.5817 93.7931 70.5047 93.7857 70.424C93.7857 70.336 93.8041 70.2517 93.8407 70.171C93.8847 70.0903 93.9581 70.0317 94.0607 69.995C94.3834 69.8337 94.7024 69.72 95.0177 69.654C95.3404 69.5807 95.6411 69.544 95.9197 69.544C96.3964 69.544 96.7887 69.621 97.0967 69.775C97.4047 69.9217 97.6357 70.1527 97.7897 70.468C97.9437 70.776 98.0207 71.172 98.0207 71.656V74.56C98.0207 74.7287 97.9804 74.857 97.8997 74.945C97.8191 75.033 97.7017 75.077 97.5477 75.077C97.4011 75.077 97.2837 75.033 97.1957 74.945C97.1151 74.857 97.0747 74.7287 97.0747 74.56V73.779H97.1737C97.1151 74.0503 97.0051 74.285 96.8437 74.483C96.6824 74.681 96.4807 74.835 96.2387 74.945C96.0041 75.0477 95.7364 75.099 95.4357 75.099ZM105.236 75.099C104.62 75.099 104.096 74.9487 103.663 74.648C103.23 74.3473 102.9 73.9147 102.673 73.35C102.446 72.7853 102.332 72.1033 102.332 71.304C102.332 70.6293 102.402 70.0353 102.541 69.522C102.688 69.0087 102.897 68.576 103.168 68.224C103.447 67.872 103.78 67.6043 104.169 67.421C104.565 67.2377 105.012 67.146 105.511 67.146C105.848 67.146 106.193 67.2083 106.545 67.333C106.897 67.4503 107.212 67.63 107.491 67.872C107.572 67.9307 107.623 68.0077 107.645 68.103C107.674 68.191 107.678 68.279 107.656 68.367C107.634 68.4477 107.59 68.5173 107.524 68.576C107.465 68.6347 107.392 68.6677 107.304 68.675C107.216 68.6823 107.121 68.653 107.018 68.587C106.769 68.389 106.516 68.246 106.259 68.158C106.002 68.07 105.746 68.026 105.489 68.026C105.027 68.026 104.635 68.1433 104.312 68.378C103.989 68.6053 103.744 68.9463 103.575 69.401C103.406 69.8557 103.322 70.424 103.322 71.106V72.085H103.212C103.263 71.6743 103.384 71.3223 103.575 71.029C103.773 70.7357 104.03 70.5083 104.345 70.347C104.66 70.1857 105.009 70.105 105.39 70.105C105.845 70.105 106.244 70.2113 106.589 70.424C106.941 70.6367 107.216 70.9263 107.414 71.293C107.619 71.6597 107.722 72.085 107.722 72.569C107.722 73.053 107.616 73.4893 107.403 73.878C107.19 74.2593 106.897 74.56 106.523 74.78C106.149 74.9927 105.72 75.099 105.236 75.099ZM105.17 74.252C105.485 74.252 105.76 74.1823 105.995 74.043C106.23 73.9037 106.413 73.7093 106.545 73.46C106.684 73.2107 106.754 72.9247 106.754 72.602C106.754 72.2793 106.684 71.9933 106.545 71.744C106.413 71.4947 106.23 71.3003 105.995 71.161C105.76 71.0217 105.485 70.952 105.17 70.952C104.855 70.952 104.58 71.0217 104.345 71.161C104.11 71.3003 103.923 71.4947 103.784 71.744C103.652 71.9933 103.586 72.2793 103.586 72.602C103.586 72.9247 103.652 73.2107 103.784 73.46C103.923 73.7093 104.11 73.9037 104.345 74.043C104.58 74.1823 104.855 74.252 105.17 74.252ZM112.602 75.099C111.832 75.099 111.172 74.9377 110.622 74.615C110.072 74.2923 109.647 73.834 109.346 73.24C109.053 72.6387 108.906 71.931 108.906 71.117C108.906 70.5083 108.99 69.962 109.159 69.478C109.328 68.9867 109.57 68.5687 109.885 68.224C110.2 67.872 110.585 67.6043 111.04 67.421C111.502 67.2377 112.023 67.146 112.602 67.146C113.042 67.146 113.464 67.2083 113.867 67.333C114.278 67.4577 114.63 67.6337 114.923 67.861C115.04 67.9417 115.117 68.0333 115.154 68.136C115.191 68.2387 115.194 68.3377 115.165 68.433C115.143 68.521 115.095 68.598 115.022 68.664C114.956 68.7227 114.872 68.7557 114.769 68.763C114.666 68.763 114.556 68.7227 114.439 68.642C114.182 68.444 113.9 68.301 113.592 68.213C113.291 68.1177 112.969 68.07 112.624 68.07C112.059 68.07 111.579 68.191 111.183 68.433C110.794 68.6677 110.497 69.0123 110.292 69.467C110.094 69.9143 109.995 70.4643 109.995 71.117C109.995 71.7623 110.094 72.316 110.292 72.778C110.497 73.2327 110.794 73.581 111.183 73.823C111.579 74.0577 112.059 74.175 112.624 74.175C112.969 74.175 113.295 74.1273 113.603 74.032C113.918 73.9367 114.208 73.79 114.472 73.592C114.589 73.5113 114.696 73.4747 114.791 73.482C114.894 73.4893 114.978 73.5223 115.044 73.581C115.11 73.6323 115.154 73.7057 115.176 73.801C115.205 73.889 115.205 73.9807 115.176 74.076C115.147 74.1713 115.081 74.2557 114.978 74.329C114.677 74.5857 114.318 74.78 113.9 74.912C113.489 75.0367 113.057 75.099 112.602 75.099ZM116.469 72.481C116.351 72.481 116.252 72.4407 116.172 72.36C116.091 72.2793 116.051 72.1803 116.051 72.063C116.051 71.9457 116.091 71.8503 116.172 71.777C116.252 71.6963 116.351 71.656 116.469 71.656H118.922C119.032 71.656 119.127 71.6963 119.208 71.777C119.296 71.8503 119.34 71.9457 119.34 72.063C119.34 72.1803 119.296 72.2793 119.208 72.36C119.127 72.4407 119.032 72.481 118.922 72.481H116.469ZM121.471 75C121.295 75 121.163 74.9597 121.075 74.879C120.994 74.791 120.954 74.6737 120.954 74.527C120.954 74.439 120.976 74.351 121.02 74.263C121.064 74.175 121.13 74.087 121.218 73.999L123.627 71.414C123.994 71.0253 124.258 70.666 124.419 70.336C124.58 70.006 124.661 69.6723 124.661 69.335C124.661 68.9097 124.529 68.587 124.265 68.367C124.008 68.1397 123.631 68.026 123.132 68.026C122.824 68.026 122.527 68.0773 122.241 68.18C121.962 68.2753 121.687 68.4257 121.416 68.631C121.313 68.7043 121.218 68.7373 121.13 68.73C121.042 68.7227 120.965 68.6897 120.899 68.631C120.84 68.565 120.796 68.4917 120.767 68.411C120.745 68.323 120.749 68.2313 120.778 68.136C120.807 68.0407 120.87 67.96 120.965 67.894C121.266 67.6593 121.614 67.476 122.01 67.344C122.406 67.212 122.813 67.146 123.231 67.146C123.759 67.146 124.203 67.2303 124.562 67.399C124.929 67.5603 125.207 67.7987 125.398 68.114C125.589 68.422 125.684 68.7997 125.684 69.247C125.684 69.555 125.633 69.8593 125.53 70.16C125.427 70.4533 125.273 70.754 125.068 71.062C124.87 71.37 124.613 71.689 124.298 72.019L122.01 74.428V74.131H125.618C125.765 74.131 125.875 74.1677 125.948 74.241C126.029 74.3143 126.069 74.4207 126.069 74.56C126.069 74.6993 126.029 74.8093 125.948 74.89C125.875 74.9633 125.765 75 125.618 75H121.471ZM129.937 75.099C129.042 75.099 128.36 74.758 127.891 74.076C127.429 73.3867 127.198 72.4003 127.198 71.117C127.198 70.2443 127.3 69.5147 127.506 68.928C127.718 68.3413 128.026 67.8977 128.43 67.597C128.84 67.2963 129.343 67.146 129.937 67.146C130.839 67.146 131.521 67.4833 131.983 68.158C132.445 68.8253 132.676 69.808 132.676 71.106C132.676 71.964 132.569 72.69 132.357 73.284C132.151 73.878 131.847 74.329 131.444 74.637C131.04 74.945 130.538 75.099 129.937 75.099ZM129.937 74.23C130.523 74.23 130.96 73.977 131.246 73.471C131.532 72.965 131.675 72.1767 131.675 71.106C131.675 70.0353 131.532 69.2543 131.246 68.763C130.967 68.2643 130.531 68.015 129.937 68.015C129.35 68.015 128.914 68.2643 128.628 68.763C128.342 69.2543 128.199 70.0353 128.199 71.106C128.199 72.1767 128.342 72.965 128.628 73.471C128.914 73.977 129.35 74.23 129.937 74.23ZM134.662 75C134.486 75 134.354 74.9597 134.266 74.879C134.186 74.791 134.145 74.6737 134.145 74.527C134.145 74.439 134.167 74.351 134.211 74.263C134.255 74.175 134.321 74.087 134.409 73.999L136.818 71.414C137.185 71.0253 137.449 70.666 137.61 70.336C137.772 70.006 137.852 69.6723 137.852 69.335C137.852 68.9097 137.72 68.587 137.456 68.367C137.2 68.1397 136.822 68.026 136.323 68.026C136.015 68.026 135.718 68.0773 135.432 68.18C135.154 68.2753 134.879 68.4257 134.607 68.631C134.505 68.7043 134.409 68.7373 134.321 68.73C134.233 68.7227 134.156 68.6897 134.09 68.631C134.032 68.565 133.988 68.4917 133.958 68.411C133.936 68.323 133.94 68.2313 133.969 68.136C133.999 68.0407 134.061 67.96 134.156 67.894C134.457 67.6593 134.805 67.476 135.201 67.344C135.597 67.212 136.004 67.146 136.422 67.146C136.95 67.146 137.394 67.2303 137.753 67.399C138.12 67.5603 138.399 67.7987 138.589 68.114C138.78 68.422 138.875 68.7997 138.875 69.247C138.875 69.555 138.824 69.8593 138.721 70.16C138.619 70.4533 138.465 70.754 138.259 71.062C138.061 71.37 137.805 71.689 137.489 72.019L135.201 74.428V74.131H138.809C138.956 74.131 139.066 74.1677 139.139 74.241C139.22 74.3143 139.26 74.4207 139.26 74.56C139.26 74.6993 139.22 74.8093 139.139 74.89C139.066 74.9633 138.956 75 138.809 75H134.662ZM144.415 75.077C144.254 75.077 144.129 75.033 144.041 74.945C143.953 74.857 143.909 74.7287 143.909 74.56V73.383H140.851C140.69 73.383 140.558 73.3463 140.455 73.273C140.36 73.1997 140.312 73.086 140.312 72.932C140.312 72.844 140.334 72.7523 140.378 72.657C140.422 72.5617 140.499 72.4333 140.609 72.272L143.876 67.509C143.957 67.399 144.041 67.3147 144.129 67.256C144.224 67.1973 144.331 67.168 144.448 67.168C144.58 67.168 144.69 67.212 144.778 67.3C144.873 67.3807 144.921 67.509 144.921 67.685V72.514H145.669C145.83 72.514 145.951 72.5507 146.032 72.624C146.113 72.6973 146.153 72.8037 146.153 72.943C146.153 73.0897 146.113 73.1997 146.032 73.273C145.951 73.3463 145.83 73.383 145.669 73.383H144.921V74.56C144.921 74.7287 144.877 74.857 144.789 74.945C144.701 75.033 144.576 75.077 144.415 75.077ZM143.909 72.514V68.444H144.184L141.214 72.789V72.514H143.909ZM150.579 75.044C150.388 75.044 150.231 74.9817 150.106 74.857C149.981 74.7323 149.919 74.5747 149.919 74.384C149.919 74.1933 149.981 74.0393 150.106 73.922C150.231 73.8047 150.388 73.746 150.579 73.746C150.784 73.746 150.942 73.8047 151.052 73.922C151.169 74.0393 151.228 74.1933 151.228 74.384C151.228 74.5747 151.169 74.7323 151.052 74.857C150.942 74.9817 150.784 75.044 150.579 75.044Z" fill="black"/>
<path d="M279 58.333V61.6663H277.333V63.333H270.667V61.6663H269V58.333H279Z" fill="#EEA206"/>
<path d="M290.666 53.3337V55.0003H289V56.667H259V55.0003H257.333V53.3337H259V51.667H260.666V48.3337H262.333V38.3337H264V35.0003H265.666V33.3337H267.333V31.667H270.666V30.0003H272.333V26.667H275.666V30.0003H277.333V31.667H280.666V33.3337H282.333V35.0003H284V38.3337H285.666V48.3337H287.333V51.667H289V53.3337H290.666Z" fill="#EEA206"/>
</svg>
