<svg width="1487" height="623" viewBox="0 0 1487 623" fill="none" xmlns="http://www.w3.org/2000/svg">
<path d="M0 34.7037C430.694 -55.552 -114.427 152.469 962.489 23.1937C2039.4 -106.081 958.167 460 958.167 460H0V34.7037Z" fill="#949198" fill-opacity="0.8"/>
<path d="M0 149.083C725.264 48.847 965.8 95.0881 1441 149.083V623H0V149.083Z" fill="#737275"/>
<path d="M2.05528e-06 46.5096C629.21 -42.2983 8.74273 138.084 803.359 294.15C1597.98 450.217 895.158 450.216 895.158 450.216L3.85535e-05 464L2.05528e-06 46.5096Z" fill="#737176" fill-opacity="0.8"/>
<path d="M1440.5 440.503C792.773 530.696 1431.5 347.501 613.5 189C-204.5 30.4998 519 30.5004 519 30.5004L944.5 47L1280 30.5004L1306 73H1440.5V440.503Z" fill="#737176" fill-opacity="0.8"/>
</svg>
