<svg width="18" height="18" viewBox="0 0 18 18" fill="none" xmlns="http://www.w3.org/2000/svg">
<path fill-rule="evenodd" clip-rule="evenodd" d="M15.9485 1.71948C15.8789 1.64974 15.7962 1.59443 15.7051 1.55668C15.6141 1.51894 15.5165 1.49951 15.4179 1.49951C15.3194 1.49951 15.2218 1.51894 15.1307 1.55668C15.0397 1.59443 14.957 1.64974 14.8873 1.71948L14.2333 2.37348C13.8133 2.17304 13.3414 2.10775 12.8827 2.1866C12.424 2.26544 12.0011 2.48454 11.672 2.81373L3.7168 10.7682L7.95955 15.011L15.9155 7.05723C16.2447 6.72819 16.4637 6.30518 16.5424 5.84647C16.6212 5.38776 16.5557 4.91592 16.355 4.49598L17.0098 3.84123C17.1504 3.70058 17.2294 3.50985 17.2294 3.31098C17.2294 3.1121 17.1504 2.92137 17.0098 2.78073L15.9485 1.71948ZM12.7475 8.10198L7.95955 12.89L5.83855 10.7682L10.6258 5.98098L12.7475 8.10198ZM14.111 6.73848L14.8535 5.99598C14.9233 5.92632 14.9786 5.84361 15.0163 5.75256C15.0541 5.66151 15.0735 5.56391 15.0735 5.46535C15.0735 5.36679 15.0541 5.26919 15.0163 5.17815C14.9786 5.0871 14.9233 5.00438 14.8535 4.93473L13.7938 3.87423C13.7241 3.80449 13.6414 3.74918 13.5504 3.71143C13.4593 3.67369 13.3617 3.65426 13.2632 3.65426C13.1646 3.65426 13.067 3.67369 12.976 3.71143C12.8849 3.74918 12.8022 3.80449 12.7325 3.87423L11.99 4.61673L14.111 6.73848Z" fill="white"/>
<path d="M1.5 17.2124L3.0915 11.3789L7.3335 15.6217L1.5 17.2124Z" fill="white"/>
</svg>
