<svg width="13" height="14" viewBox="0 0 13 14" fill="none" xmlns="http://www.w3.org/2000/svg">
<path d="M13 0.982422C13 0.766933 12.9144 0.560271 12.762 0.407898C12.6097 0.255524 12.403 0.169922 12.1875 0.169922H8.125C7.90951 0.169922 7.70285 0.255524 7.55048 0.407898C7.3981 0.560271 7.3125 0.766933 7.3125 0.982422C7.3125 1.19791 7.3981 1.40457 7.55048 1.55695C7.70285 1.70932 7.90951 1.79492 8.125 1.79492H10.2131L7.54812 4.46805C7.47197 4.54358 7.41153 4.63344 7.37028 4.73245C7.32903 4.83146 7.30779 4.93766 7.30779 5.04492C7.30779 5.15218 7.32903 5.25838 7.37028 5.35739C7.41153 5.4564 7.47197 5.54626 7.54812 5.6218C7.62366 5.69795 7.71352 5.7584 7.81253 5.79965C7.91154 5.8409 8.01774 5.86213 8.125 5.86213C8.23226 5.86213 8.33846 5.8409 8.43747 5.79965C8.53648 5.7584 8.62634 5.69795 8.70187 5.6218L11.375 2.94867V5.04492C11.375 5.26041 11.4606 5.46707 11.613 5.61945C11.7653 5.77182 11.972 5.85742 12.1875 5.85742C12.403 5.85742 12.6097 5.77182 12.762 5.61945C12.9144 5.46707 13 5.26041 13 5.04492V0.982422ZM5.45188 7.71805C5.37634 7.64189 5.28648 7.58145 5.18747 7.5402C5.08846 7.49895 4.98226 7.47771 4.875 7.47771C4.76774 7.47771 4.66154 7.49895 4.56253 7.5402C4.46352 7.58145 4.37366 7.64189 4.29812 7.71805L1.625 10.383V8.29492C1.625 8.07943 1.5394 7.87277 1.38702 7.7204C1.23465 7.56802 1.02799 7.48242 0.8125 7.48242C0.597012 7.48242 0.390349 7.56802 0.237976 7.7204C0.0856026 7.87277 0 8.07943 0 8.29492V12.3574C0 12.5729 0.0856026 12.7796 0.237976 12.9319C0.390349 13.0843 0.597012 13.1699 0.8125 13.1699H4.875C5.09049 13.1699 5.29715 13.0843 5.44952 12.9319C5.6019 12.7796 5.6875 12.5729 5.6875 12.3574C5.6875 12.1419 5.6019 11.9353 5.44952 11.7829C5.29715 11.6305 5.09049 11.5449 4.875 11.5449H2.77875L5.45188 8.8718C5.52803 8.79626 5.58847 8.7064 5.62972 8.60739C5.67097 8.50838 5.69221 8.40218 5.69221 8.29492C5.69221 8.18766 5.67097 8.08146 5.62972 7.98245C5.58847 7.88344 5.52803 7.79358 5.45188 7.71805Z" fill="white"/>
</svg>
