<svg width="25" height="25" viewBox="0 0 25 25" fill="none" xmlns="http://www.w3.org/2000/svg">
<path d="M8.47623 15.0035L5.42784 11.9551C5.26358 11.7908 5.0408 11.6986 4.8085 11.6986C4.5762 11.6986 4.35342 11.7908 4.18916 11.9551C4.0249 12.1194 3.93262 12.3421 3.93262 12.5744C3.93262 12.6895 3.95527 12.8034 3.99929 12.9096C4.04331 13.0159 4.10782 13.1125 4.18916 13.1938L7.86128 16.8659C8.2039 17.2085 8.75735 17.2085 9.09997 16.8659L18.3945 7.5714C18.5587 7.40714 18.651 7.18435 18.651 6.95205C18.651 6.71976 18.5587 6.49697 18.3945 6.33271C18.2302 6.16845 18.0074 6.07617 17.7751 6.07617C17.5428 6.07617 17.3201 6.16845 17.1558 6.33271L8.47623 15.0035Z" fill="black"/>
</svg>
