<svg width="48" height="48" viewBox="0 0 48 48" fill="none" xmlns="http://www.w3.org/2000/svg">
<path fill-rule="evenodd" clip-rule="evenodd" d="M42 24C42 33.9411 33.9411 42 24 42C14.0589 42 6 33.9411 6 24C6 14.0589 14.0589 6 24 6C33.9411 6 42 14.0589 42 24ZM26 36C26 37.1046 25.1046 38 24 38C22.8954 38 22 37.1046 22 36C22 34.8954 22.8954 34 24 34C25.1046 34 26 34.8954 26 36ZM24 11C20.134 11 17 14.134 17 18H19C19 15.2386 21.2386 13 24 13H24.1886C26.8459 13 29 15.1541 29 17.8114V18.8377C29 20.2958 28.067 21.5902 26.6838 22.0513C24.4839 22.7846 23 24.8434 23 27.1623V32H25V27.1623C25 25.7042 25.933 24.4098 27.3162 23.9487C29.5161 23.2154 31 21.1566 31 18.8377V17.8114C31 14.0496 27.9504 11 24.1886 11H24Z" fill="#F3DE2C"/>
</svg>
