<svg width="17" height="17" viewBox="0 0 17 17" fill="none" xmlns="http://www.w3.org/2000/svg">
<path fill-rule="evenodd" clip-rule="evenodd" d="M9.01044 0.0172869C10.8544 0.132533 12.5831 1.0545 13.8508 2.32221C15.349 3.93566 16.1557 5.89484 16.1557 8.19977C16.1557 10.0437 15.4642 11.7724 14.3118 13.2706C13.1593 14.6536 11.5459 15.6908 9.70191 16.0365C7.85797 16.3822 6.01403 16.1518 4.40059 15.2298C2.78714 14.3078 1.51943 12.9249 0.827956 11.1962C0.136479 9.46748 0.0212327 7.50829 0.597464 5.7796C1.17369 3.93566 2.21091 2.43746 3.82436 1.40024C5.32256 0.363026 7.1665 -0.0979593 9.01044 0.0172869ZM9.58667 14.884C11.0849 14.5383 12.4678 13.7316 13.505 12.4639C14.427 11.1962 15.0032 9.69797 14.888 8.08452C14.888 6.24058 14.1965 4.39664 12.9288 3.12893C11.7763 1.97647 10.3934 1.285 8.77994 1.16975C7.28174 1.0545 5.6683 1.40024 4.40059 2.32221C3.13288 3.24418 2.21091 4.51189 1.74993 6.12534C1.28894 7.62354 1.28894 9.23698 1.98042 10.7352C2.6719 12.2334 3.70911 13.3858 5.09206 14.1926C6.47502 14.9993 8.08847 15.2298 9.58667 14.884ZM8.20371 7.50829L10.9696 4.62713L11.7763 5.43386L9.01044 8.31501L11.7763 11.1962L10.9696 12.0029L8.20371 9.12174L5.4378 12.0029L4.63108 11.1962L7.39699 8.31501L4.63108 5.43386L5.4378 4.62713L8.20371 7.50829Z" fill="#FEF618"/>
</svg>
