<svg width="16" height="17" viewBox="0 0 16 17" fill="none" xmlns="http://www.w3.org/2000/svg">
<path d="M15.5082 3.39035L8.15725 0.843229C8.0315 0.799653 7.89555 0.799653 7.7698 0.843229L0.418851 3.39035C0.296875 3.43262 0.190785 3.51371 0.115612 3.62214C0.0404376 3.73057 -9.52734e-06 3.86084 1.68334e-09 3.99449V10.3623C1.68334e-09 10.5312 0.0645393 10.6931 0.17942 10.8126C0.294301 10.932 0.450113 10.9991 0.612579 10.9991C0.775045 10.9991 0.930856 10.932 1.04574 10.8126C1.16062 10.6931 1.22516 10.5312 1.22516 10.3623V4.87803L3.79722 5.76872C3.11386 6.91636 2.89655 8.299 3.19302 9.61305C3.48948 10.9271 4.27549 12.0651 5.37844 12.7773C4.00014 13.3392 2.80867 14.3557 1.93728 15.7455C1.89196 15.8155 1.86048 15.8942 1.84467 15.977C1.82887 16.0597 1.82904 16.1449 1.8452 16.2276C1.86135 16.3103 1.89315 16.3889 1.93876 16.4587C1.98437 16.5285 2.04287 16.5882 2.11087 16.6343C2.17887 16.6804 2.255 16.712 2.33485 16.7273C2.4147 16.7425 2.49666 16.7411 2.57598 16.7231C2.6553 16.7052 2.7304 16.671 2.7969 16.6226C2.8634 16.5742 2.91998 16.5125 2.96335 16.4412C4.11729 14.6009 5.93972 13.5462 7.96352 13.5462C9.98733 13.5462 11.8098 14.6009 12.9637 16.4412C13.0535 16.58 13.1923 16.6764 13.3501 16.7097C13.5078 16.743 13.6718 16.7104 13.8066 16.619C13.9414 16.5276 14.0362 16.3848 14.0705 16.2213C14.1047 16.0578 14.0758 15.8869 13.9898 15.7455C13.1184 14.3557 11.9223 13.3392 10.5486 12.7773C11.6505 12.0652 12.4358 10.9279 12.7322 9.61478C13.0286 8.3017 12.812 6.92001 12.1298 5.7727L15.5082 4.60262C15.6302 4.56038 15.7363 4.47929 15.8115 4.37086C15.8867 4.26243 15.9272 4.13215 15.9272 3.99847C15.9272 3.8648 15.8867 3.73452 15.8115 3.62609C15.7363 3.51766 15.6302 3.43657 15.5082 3.39433V3.39035ZM11.639 8.45196C11.6392 9.05599 11.5016 9.65145 11.2375 10.1895C10.9734 10.7275 10.5903 11.1928 10.1197 11.5472C9.64917 11.9015 9.10448 12.1349 8.53036 12.228C7.95623 12.3212 7.36904 12.2715 6.81697 12.0831C6.26489 11.8946 5.76366 11.5728 5.35439 11.144C4.94513 10.7153 4.63949 10.1917 4.46257 9.61636C4.28564 9.04101 4.24247 8.43025 4.33658 7.8342C4.4307 7.23814 4.65943 6.67378 5.004 6.18741L7.7698 7.14258C7.89555 7.18615 8.0315 7.18615 8.15725 7.14258L10.923 6.18741C11.3884 6.84331 11.6393 7.63696 11.639 8.45196ZM7.96352 5.87061L2.54986 3.99449L7.96352 2.11838L13.3772 3.99449L7.96352 5.87061Z" fill="white"/>
</svg>
