<svg width="68" height="68" viewBox="0 0 68 68" fill="none" xmlns="http://www.w3.org/2000/svg">
<path d="M34 0C15.2224 0 0 15.2224 0 34C0 52.7786 15.2224 68 34 68C52.7786 68 68 52.7786 68 34C68 15.2224 52.7786 0 34 0ZM34 63.8169C17.5961 63.8169 4.25 50.4039 4.25 33.9999C4.25 17.5959 17.5961 4.24987 34 4.24987C50.4039 4.24987 63.75 17.596 63.75 33.9999C63.75 50.4037 50.4039 63.8169 34 63.8169ZM48.875 31.875H36.125V19.125C36.125 17.952 35.173 17 34 17C32.827 17 31.875 17.952 31.875 19.125V31.875H19.125C17.952 31.875 17 32.827 17 34C17 35.173 17.952 36.125 19.125 36.125H31.875V48.875C31.875 50.048 32.827 51 34 51C35.173 51 36.125 50.048 36.125 48.875V36.125H48.875C50.048 36.125 51 35.173 51 34C51 32.827 50.048 31.875 48.875 31.875Z" fill="#476334"/>
</svg>
