<svg width="12" height="12" viewBox="0 0 12 12" fill="none" xmlns="http://www.w3.org/2000/svg">
<path fill-rule="evenodd" clip-rule="evenodd" d="M7.95788 5.14709C8.04954 4.67134 8.09753 4.18005 8.09753 3.67754V0.222656H0.374846V11.4002C2.24471 11.4002 3.95936 10.7357 5.2955 9.62987C6.62864 10.5177 8.76577 11.3613 11.3477 10.8919C10.6364 10.5871 7.89277 8.758 7.99439 5.09989C7.98269 5.11597 7.97052 5.1317 7.95788 5.14709Z" fill="#89BC2F"/>
<path d="M7.95788 5.14709L8.08026 5.24756L7.80241 5.11714L7.95788 5.14709ZM8.09753 0.222656V0.0643229H8.25586V0.222656H8.09753ZM0.374846 0.222656H0.216513V0.0643229H0.374846V0.222656ZM0.374846 11.4002V11.5586H0.216513V11.4002H0.374846ZM5.2955 9.62987L5.19455 9.50789L5.28527 9.43282L5.38327 9.49809L5.2955 9.62987ZM11.3477 10.8919L11.41 10.7464L11.8935 10.9536L11.376 11.0477L11.3477 10.8919ZM7.99439 5.09989L7.86634 5.00676L8.16684 4.59356L8.15266 5.10429L7.99439 5.09989ZM8.25586 3.67754C8.25586 4.19015 8.2069 4.69147 8.11336 5.17705L7.80241 5.11714C7.89217 4.65121 7.9392 4.16994 7.9392 3.67754H8.25586ZM8.25586 0.222656V3.67754H7.9392V0.222656H8.25586ZM0.374846 0.0643229H8.09753V0.38099H0.374846V0.0643229ZM0.216513 11.4002V0.222656H0.53318V11.4002H0.216513ZM5.39645 9.75185C4.03297 10.8803 2.28291 11.5586 0.374846 11.5586V11.2419C2.20652 11.2419 3.88576 10.5911 5.19455 9.50789L5.39645 9.75185ZM11.376 11.0477C8.74368 11.5263 6.56541 10.6658 5.20774 9.76165L5.38327 9.49809C6.69188 10.3696 8.78787 11.1964 11.3193 10.7361L11.376 11.0477ZM8.15266 5.10429C8.10306 6.88964 8.74688 8.22579 9.48982 9.15446C10.2359 10.087 11.0786 10.6043 11.41 10.7464L11.2853 11.0374C10.9054 10.8746 10.0207 10.325 9.24254 9.35228C8.46126 8.37568 7.78409 6.96825 7.83611 5.09549L8.15266 5.10429ZM7.83551 5.04663C7.84621 5.03359 7.85649 5.0203 7.86634 5.00676L8.12244 5.19302C8.10889 5.21164 8.09483 5.22982 8.08026 5.24756L7.83551 5.04663Z" fill="#89BC2F"/>
</svg>
