<svg width="38" height="24" viewBox="0 0 38 24" fill="none" xmlns="http://www.w3.org/2000/svg">
<path d="M30.1646 4.3042H25.1032V5.99136H23.416V11.0528H25.1032V5.99136H30.1646V4.3042ZM30.1646 11.0528H25.1032V12.74H30.1646V11.0528ZM30.1646 5.99136H31.8518V11.0528H30.1646V5.99136ZM20.8853 16.1143H22.5724V14.4272H32.6954V16.1143H22.5724V19.4886H32.6954V16.1143H34.3825V21.1758H20.8853V16.1143Z" fill="#233617"/>
<path d="M12.9181 4.3042H7.85657V5.99136H6.16941V11.0528H7.85657V5.99136H12.9181V4.3042ZM12.9181 11.0528H7.85657V12.74H12.9181V11.0528ZM12.9181 5.99136H14.6052V11.0528H12.9181V5.99136ZM3.63867 16.1143H5.32583V14.4272H15.4488V16.1143H5.32583V19.4886H15.4488V16.1143H17.136V21.1758H3.63867V16.1143Z" fill="#233617"/>
<path d="M22.2913 2.3042H16.48V4.24131H14.5429V10.0526H16.48V4.24131H22.2913V2.3042ZM22.2913 10.0526H16.48V11.9898H22.2913V10.0526ZM22.2913 4.24131H24.2284V10.0526H22.2913V4.24131ZM11.6372 15.864H13.5743V13.9269H25.197V15.864H13.5743V19.7382H25.197V15.864H27.1341V21.6753H11.6372V15.864Z" fill="#233617"/>
<path d="M23.2913 2.3042V1.3042H22.2913H16.48H15.48V2.3042V3.24131H14.5429H13.5429V4.24131V10.0526V11.0526H14.5429H15.48V11.9898V12.9269H13.5743H12.5743V13.9269V14.864H11.6372H10.6372V15.864V21.6753V22.6753H11.6372H27.1341H28.1341V21.6753V15.864V14.864H27.1341H26.197V13.9269V12.9269H25.197H23.2913V11.9898V11.0526H24.2284H25.2284V10.0526V4.24131V3.24131H24.2284H23.2913V2.3042ZM21.2913 9.05264H17.48V5.24131H21.2913V9.05264ZM24.197 16.864V18.7382H14.5743V16.864H24.197Z" stroke="#E5EAE2" stroke-opacity="0.3" stroke-width="2"/>
</svg>
