<svg width="38" height="39" viewBox="0 0 38 39" fill="none" xmlns="http://www.w3.org/2000/svg">
<path d="M32.783 7.36523H5.54475C4.68514 7.36523 3.98828 8.06209 3.98828 8.9217V30.0897C3.98828 30.9493 4.68514 31.6462 5.54475 31.6462H32.783C33.6426 31.6462 34.3394 30.9493 34.3394 30.0897V8.9217C34.3394 8.06209 33.6426 7.36523 32.783 7.36523Z" stroke="#233617" stroke-width="0.778235" stroke-linecap="round" stroke-linejoin="round"/>
<path d="M30.4481 10.478H7.87931C7.4495 10.478 7.10107 10.8265 7.10107 11.2563V27.7548C7.10107 28.1847 7.4495 28.5331 7.87931 28.5331H30.4481C30.8779 28.5331 31.2264 28.1847 31.2264 27.7548V11.2563C31.2264 10.8265 30.8779 10.478 30.4481 10.478Z" stroke="#233617" stroke-width="0.778235" stroke-linecap="round" stroke-linejoin="round"/>
<path d="M23.5844 26.8287H28.7363V28.533H23.5844V26.8287ZM20.5959 15.6143C20.408 15.4261 20.1848 15.2767 19.9391 15.1749C19.6934 15.073 19.43 15.0205 19.164 15.0205C18.898 15.0205 18.6346 15.073 18.3889 15.1749C18.1432 15.2767 17.92 15.4261 17.732 15.6143C17.497 15.8505 17.3237 16.1409 17.2274 16.4599C17.131 16.7788 17.1147 17.1166 17.1797 17.4434C17.2447 17.7702 17.3891 18.076 17.6002 18.3338C17.8112 18.5916 18.0825 18.7935 18.39 18.9218C18.6975 19.05 19.0319 19.1007 19.3636 19.0692C19.6953 19.0377 20.0142 18.9252 20.2921 18.7414C20.57 18.5576 20.7985 18.3083 20.9573 18.0154C21.1162 17.7225 21.2005 17.395 21.203 17.0619C21.204 16.7908 21.1492 16.5224 21.0421 16.2734C20.935 16.0244 20.7779 15.8 20.5804 15.6143H20.5959ZM17.6075 20.6962H20.7205C21.3397 20.6962 21.9335 20.9422 22.3713 21.38C22.8092 21.8179 23.0552 22.4117 23.0552 23.0309V23.9726H15.2728V23.0309C15.2728 22.4117 15.5188 21.8179 15.9566 21.38C16.3945 20.9422 16.9883 20.6962 17.6075 20.6962ZM14.0432 17.5366C13.8985 17.3907 13.7264 17.2749 13.5367 17.1959C13.347 17.1169 13.1436 17.0762 12.9381 17.0762C12.7326 17.0762 12.5292 17.1169 12.3395 17.1959C12.1499 17.2749 11.9777 17.3907 11.833 17.5366C11.6537 17.7174 11.5216 17.9394 11.4481 18.1832C11.3746 18.427 11.362 18.6851 11.4115 18.9349C11.461 19.1847 11.571 19.4185 11.7319 19.6159C11.8928 19.8133 12.0996 19.9681 12.3343 20.0669C12.569 20.1658 12.8243 20.2055 13.0779 20.1826C13.3315 20.1598 13.5757 20.0751 13.7889 19.9359C14.0022 19.7968 14.178 19.6074 14.301 19.3845C14.4241 19.1616 14.4905 18.9118 14.4946 18.6572C14.4948 18.45 14.4535 18.2448 14.3734 18.0537C14.2932 17.8626 14.1756 17.6894 14.0276 17.5444L14.0432 17.5366Z" stroke="#233617" stroke-width="0.778235" stroke-linecap="round" stroke-linejoin="round"/>
<path d="M15.5371 21.9492C15.3918 21.7903 15.2151 21.6633 15.0181 21.5763C14.8212 21.4892 14.6084 21.4439 14.3931 21.4433H11.4825C11.0697 21.4433 10.6738 21.6073 10.3819 21.8992C10.09 22.1911 9.92603 22.587 9.92603 22.9998V23.9726H15.2725M23.0548 23.9726H28.3935V22.9998C28.3935 22.587 28.2296 22.1911 27.9377 21.8992C27.6458 21.6073 27.2499 21.4433 26.8371 21.4433H23.9343C23.719 21.4439 23.5061 21.4892 23.3092 21.5763C23.1123 21.6633 22.9356 21.7903 22.7902 21.9492M26.4946 17.5366C26.35 17.3907 26.1778 17.2749 25.9881 17.1959C25.7985 17.1169 25.595 17.0762 25.3896 17.0762C25.1841 17.0762 24.9806 17.1169 24.791 17.1959C24.6013 17.2749 24.4292 17.3907 24.2845 17.5366C24.1052 17.7174 23.973 17.9394 23.8995 18.1832C23.826 18.427 23.8135 18.6851 23.863 18.9349C23.9124 19.1847 24.0224 19.4185 24.1833 19.6159C24.3442 19.8132 24.5511 19.9681 24.7858 20.0669C25.0204 20.1658 25.2758 20.2055 25.5294 20.1826C25.783 20.1598 26.0271 20.0751 26.2404 19.9359C26.4536 19.7968 26.6294 19.6074 26.7525 19.3845C26.8755 19.1616 26.942 18.9118 26.946 18.6572C26.9462 18.45 26.905 18.2448 26.8248 18.0537C26.7446 17.8626 26.6271 17.6894 26.4791 17.5444L26.4946 17.5366Z" stroke="#233617" stroke-width="0.778235" stroke-linecap="round" stroke-linejoin="round"/>
</svg>
