<svg width="12" height="8" viewBox="0 0 12 8" fill="none" xmlns="http://www.w3.org/2000/svg">
<path d="M9.67905 0.636798L5.73568 4.82239L1.79232 0.636798C1.69822 0.536924 1.58652 0.4577 1.46358 0.403649C1.34064 0.349598 1.20887 0.321777 1.0758 0.321777C0.942734 0.321777 0.810969 0.349598 0.688029 0.403649C0.56509 0.4577 0.453384 0.536924 0.35929 0.636798C0.265196 0.736672 0.190557 0.855239 0.139633 0.98573C0.0887101 1.11622 0.0625 1.25608 0.0625 1.39732C0.0625 1.53857 0.0887101 1.67843 0.139633 1.80892C0.190557 1.93941 0.265196 2.05798 0.35929 2.15785L5.02425 7.10936C5.42062 7.53008 6.06091 7.53008 6.45728 7.10936L11.1222 2.15785C11.2165 2.05805 11.2912 1.93951 11.3422 1.80901C11.3932 1.6785 11.4195 1.53861 11.4195 1.39732C11.4195 1.25604 11.3932 1.11614 11.3422 0.985643C11.2912 0.855142 11.2165 0.736598 11.1222 0.636798C10.7259 0.226869 10.0754 0.216081 9.67905 0.636798Z" fill="#D8C9C9"/>
</svg>
