<svg width="16" height="15" viewBox="0 0 16 15" fill="none" xmlns="http://www.w3.org/2000/svg">
<path d="M12.4485 1.87652V0.462891H3.9667V1.87652H0.432617V5.4106H1.13943V6.82423H1.84625V7.53105H2.55307V8.23787H3.25988V8.94468H3.9667V9.6515H6.08715V10.3583H7.50078V12.4788H4.67351V14.5992H11.7417V12.4788H8.91441V10.3583H10.328V9.6515H12.4485V8.94468H13.1553V8.23787H13.8621V7.53105H14.5689V6.82423H15.2758V5.4106H15.9826V1.87652H12.4485ZM3.25988 7.53105V6.82423H2.55307V5.4106H1.84625V3.29015H3.25988V3.99697H3.9667V5.4106H4.67351V7.53105H5.38033V8.23787H3.9667V7.53105H3.25988ZM14.5689 5.4106H13.8621V6.82423H13.1553V7.53105H12.4485V8.23787H11.0349V7.53105H11.7417V6.11742H12.4485V3.99697H13.1553V3.29015H14.5689V5.4106Z" fill="#F3DE2C"/>
</svg>
