<svg width="12" height="13" viewBox="0 0 12 13" fill="none" xmlns="http://www.w3.org/2000/svg">
<path d="M9.61655 0.315021L5.67318 4.50061L1.72982 0.315021C1.63572 0.215147 1.52402 0.135923 1.40108 0.0818719C1.27814 0.0278206 1.14637 1.05234e-09 1.0133 0C0.880235 -1.05234e-09 0.748469 0.0278206 0.625529 0.0818719C0.50259 0.135923 0.390884 0.215147 0.29679 0.315021C0.202696 0.414894 0.128057 0.533462 0.0771333 0.663953C0.0262101 0.794444 -9.91439e-10 0.934304 0 1.07555C9.91442e-10 1.21679 0.0262101 1.35665 0.0771333 1.48714C0.128057 1.61763 0.202696 1.7362 0.29679 1.83607L4.96175 6.78759C5.35812 7.2083 5.99841 7.2083 6.39478 6.78759L11.0597 1.83607C11.154 1.73627 11.2287 1.61773 11.2797 1.48723C11.3307 1.35673 11.357 1.21683 11.357 1.07555C11.357 0.934263 11.3307 0.794367 11.2797 0.663866C11.2287 0.533364 11.154 0.414821 11.0597 0.315021C10.6634 -0.0949085 10.0129 -0.105696 9.61655 0.315021Z" fill="#D8C9C9"/>
<path d="M1.74087 11.788L5.68424 7.60241L9.6276 11.788C9.7217 11.8879 9.8334 11.9671 9.95634 12.0212C10.0793 12.0752 10.211 12.103 10.3441 12.103C10.4772 12.103 10.609 12.0752 10.7319 12.0212C10.8548 11.9671 10.9665 11.8879 11.0606 11.788C11.1547 11.6881 11.2294 11.5696 11.2803 11.4391C11.3312 11.3086 11.3574 11.1687 11.3574 11.0275C11.3574 10.8862 11.3312 10.7464 11.2803 10.6159C11.2294 10.4854 11.1547 10.3668 11.0606 10.267L6.39567 5.31544C5.9993 4.89473 5.35901 4.89473 4.96264 5.31544L0.297684 10.267C0.203467 10.3668 0.128718 10.4853 0.077717 10.6158C0.026716 10.7463 0.000463954 10.8862 0.000463954 11.0275C0.000463954 11.1688 0.026716 11.3087 0.077717 11.4392C0.128718 11.5697 0.203467 11.6882 0.297684 11.788C0.694053 12.1979 1.3445 12.2087 1.74087 11.788Z" fill="#D8C9C9"/>
</svg>
